<?xml version="1.0" encoding="UTF-8"?>
<svg version="1.1" xmlns="http://www.w3.org/2000/svg" width="225" height="225">
<path d="M0 0 C74.25 0 148.5 0 225 0 C225 74.25 225 148.5 225 225 C150.75 225 76.5 225 0 225 C0 150.75 0 76.5 0 0 Z " fill="#F2F2F2" transform="translate(0,0)"/>
<path d="M0 0 C74.25 0 148.5 0 225 0 C225 74.25 225 148.5 225 225 C150.75 225 76.5 225 0 225 C0 150.75 0 76.5 0 0 Z M72 31 C71.04867187 31.49113281 70.09734375 31.98226563 69.1171875 32.48828125 C47.02012476 44.57531688 31.86833759 63.97698974 24.57080078 88.00146484 C17.97439309 111.09735592 21.57867537 136.08414657 33.04052734 156.88867188 C45.91541111 179.20277579 65.79404518 193.95758875 90.34375 201.08984375 C106.50212882 205.11217523 125.36731573 204.81946641 141 199 C142.03898437 198.62617188 143.07796875 198.25234375 144.1484375 197.8671875 C167.68708214 188.73007865 184.9153772 172.19324958 195.75 149.5 C204.72481882 128.70025098 206.59561994 103.46842218 198.55859375 82.015625 C188.78166254 57.59086031 171.31571931 38.55433335 147 28 C122.71603878 18.72591905 95.21115429 18.70566457 72 31 Z " fill="#3299DB" transform="translate(0,0)"/>
<path d="M0 0 C6.85761715 -0.60956597 13.79867481 1.30320343 19.62597656 5.04370117 C23.18476927 6.47724611 26.75255607 6.34567161 30.53515625 6.37109375 C31.78600258 6.38463646 31.78600258 6.38463646 33.06211853 6.39845276 C34.82807842 6.41294785 36.59409192 6.42184016 38.36010742 6.42553711 C41.02943892 6.43735365 43.69639605 6.48647431 46.36523438 6.53710938 C55.01169073 6.61783786 62.1637007 6.54493341 69.90405273 2.17602539 C74.20701758 -0.23834638 78.12261674 -0.09379583 83 0 C83.11214844 1.97419922 83.11214844 1.97419922 83.2265625 3.98828125 C84.06160787 16.93461393 84.06160787 16.93461393 89.5625 28.515625 C93.2961855 34.96840754 93.37160177 42.23591732 93.625 49.5 C93.66367188 50.4178125 93.70234375 51.335625 93.7421875 52.28125 C93.83549564 54.52064528 93.92128185 56.76005254 94 59 C94.56509277 58.98952637 95.13018555 58.97905273 95.71240234 58.96826172 C98.26655653 58.92675212 100.82063982 58.9006904 103.375 58.875 C104.26445312 58.85824219 105.15390625 58.84148437 106.0703125 58.82421875 C107.34648437 58.81455078 107.34648437 58.81455078 108.6484375 58.8046875 C109.82672119 58.78897705 109.82672119 58.78897705 111.02880859 58.77294922 C113 59 113 59 115 61 C103.12 61.495 103.12 61.495 91 62 C96.74280601 62.57677639 96.74280601 62.57677639 102.48730469 63.13623047 C103.56866699 63.2505542 103.56866699 63.2505542 104.671875 63.3671875 C105.4050293 63.44050293 106.13818359 63.51381836 106.89355469 63.58935547 C109.19952905 64.03889753 110.95391841 64.8637373 113 66 C104.97591531 65.50311992 96.98204378 64.98025099 89 64 C88.773125 64.721875 88.54625 65.44375 88.3125 66.1875 C85.47276238 72.27265205 79.90724308 76.12115369 74 79 C69.71325829 80.51412437 65.38513475 81.80344646 61 83 C60.85939946 85.27956549 60.85939946 85.27956549 62.47241211 88.16503906 C64.13205639 91.94217315 64.39652798 95.21337485 64.44140625 99.359375 C64.46121803 100.36596161 64.46121803 100.36596161 64.48143005 101.3928833 C64.52193712 103.51196627 64.54390047 105.63062017 64.5625 107.75 C64.58633433 109.8835335 64.61445156 112.01666597 64.65428162 114.14996338 C64.68962285 116.07474614 64.70959981 117.99979285 64.72875977 119.92480469 C64.76739253 123.17049277 64.76739253 123.17049277 67 126 C62.34605219 126.32469403 59.76641082 125.79790518 56 123 C54.6691089 120.33821779 54.88731007 118.31260604 54.90234375 115.3359375 C54.90717773 113.65371094 54.90717773 113.65371094 54.91210938 111.9375 C54.92467773 110.1740625 54.92467773 110.1740625 54.9375 108.375 C54.94201172 107.19164062 54.94652344 106.00828125 54.95117188 104.7890625 C54.96298533 101.85932493 54.97945742 98.92968728 55 96 C54.34 96 53.68 96 53 96 C53.1181656 100.09362106 53.24240784 104.18700767 53.37231445 108.28027344 C53.41565846 109.6731259 53.45733396 111.06603131 53.49731445 112.45898438 C53.55502932 114.45976651 53.61921869 116.46035859 53.68359375 118.4609375 C53.72025146 119.66540527 53.75690918 120.86987305 53.79467773 122.11083984 C53.81052987 124.93996367 53.81052987 124.93996367 55 127 C48.67666232 126.51358941 48.67666232 126.51358941 45.80371094 124.33300781 C43.51260272 121.36957656 43.46354297 119.64069156 43.390625 115.921875 C43.35839844 114.76171875 43.32617188 113.6015625 43.29296875 112.40625 C43.27878906 111.1996875 43.26460938 109.993125 43.25 108.75 C43.22035156 107.52796875 43.19070312 106.3059375 43.16015625 105.046875 C43.08947598 102.03118356 43.03676825 99.0162645 43 96 C42.98541748 96.80219971 42.97083496 97.60439941 42.95581055 98.4309082 C42.88143281 102.05859699 42.78473757 105.68535504 42.6875 109.3125 C42.66494141 110.57513672 42.64238281 111.83777344 42.61914062 113.13867188 C42.5659668 114.95141602 42.5659668 114.95141602 42.51171875 116.80078125 C42.48553467 117.91622314 42.45935059 119.03166504 42.43237305 120.1809082 C42 123 42 123 40.59570312 124.85546875 C37.68129279 126.94585364 34.50582603 126.71263721 31 127 C31.33 126.34 31.66 125.68 32 125 C32.08543895 122.89471067 32.10714725 120.78668843 32.09765625 118.6796875 C32.09443359 117.42285156 32.09121094 116.16601562 32.08789062 114.87109375 C32.07951172 113.55238281 32.07113281 112.23367187 32.0625 110.875 C32.05748489 109.53515789 32.05292201 108.195314 32.04882812 106.85546875 C32.03701086 103.57026794 32.02053617 100.28515603 32 97 C31.9906543 97.73637695 31.98130859 98.47275391 31.97167969 99.23144531 C31.91795845 102.57164218 31.83431378 105.91044119 31.75 109.25 C31.73582031 110.40886719 31.72164062 111.56773437 31.70703125 112.76171875 C31.67480469 113.87675781 31.64257812 114.99179688 31.609375 116.140625 C31.58842773 117.16704102 31.56748047 118.19345703 31.54589844 119.25097656 C30.86455801 122.68205581 29.75665289 123.89987067 27 126 C23.75 126.25 23.75 126.25 21 126 C21.495 124.515 21.495 124.515 22 123 C22.14573058 121.52034074 22.24663268 120.03596157 22.31640625 118.55078125 C22.35830078 117.70322266 22.40019531 116.85566406 22.44335938 115.98242188 C22.48267578 115.10134766 22.52199219 114.22027344 22.5625 113.3125 C22.62727539 111.97348633 22.62727539 111.97348633 22.69335938 110.60742188 C22.79935353 108.40509892 22.90142051 106.20266527 23 104 C22.05898437 104.04640625 21.11796875 104.0928125 20.1484375 104.140625 C9.97550354 104.43549265 9.97550354 104.43549265 5.5 102.4375 C0.09499192 97.16761712 -3.88863444 91.82842815 -7.60546875 85.234375 C-8.89946841 83.16107583 -10.19921805 81.63610867 -12 80 C-5.36080089 80.63230468 -1.41957787 83.69193242 3.375 88.0625 C6.97433759 91.2449878 10.4767658 92.46670027 15 94 C15.99 94.99 15.99 94.99 17 96 C17 95.34 17 94.68 17 94 C17.99 94.33 18.98 94.66 20 95 C19.67 95.66 19.34 96.32 19 97 C21.06298134 94.93701866 21.52716916 93.87734763 22.4375 91.1875 C23.62605485 87.85833361 25.05199978 84.96838128 27 82 C26.44054687 82.00902344 25.88109375 82.01804687 25.3046875 82.02734375 C17.38863469 81.73462797 9.31606544 78.87997037 3 74 C1.93206159 72.60903173 0.88367285 71.20291271 -0.1484375 69.78515625 C-2.33682534 67.1526858 -3.43169866 66.13081878 -6.80102539 65.35522461 C-10.0476816 65.21377961 -13.19428752 65.29982546 -16.4375 65.5 C-17.55060547 65.53609375 -18.66371094 65.5721875 -19.81054688 65.609375 C-22.54396097 65.70322613 -25.27015413 65.83434241 -28 66 C-25.17472464 64.43102297 -22.88157952 63.68815795 -19.671875 63.3671875 C-18.5905127 63.25286377 -18.5905127 63.25286377 -17.48730469 63.13623047 C-16.58399414 63.05002441 -15.68068359 62.96381836 -14.75 62.875 C-11.8625 62.58625 -8.975 62.2975 -6 62 C-13.92 61.67 -21.84 61.34 -30 61 C-26.31422423 59.15711212 -25.27877347 58.75298955 -21.453125 58.8046875 C-20.18662109 58.81435547 -20.18662109 58.81435547 -18.89453125 58.82421875 C-18.02183594 58.84097656 -17.14914063 58.85773438 -16.25 58.875 C-14.91775391 58.88853516 -14.91775391 58.88853516 -13.55859375 58.90234375 C-11.37211942 58.92585423 -9.18619906 58.95871501 -7 59 C-7.48146484 57.22882813 -7.48146484 57.22882813 -7.97265625 55.421875 C-10.70230624 44.42590676 -9.28649687 34.94822593 -4 25 C-3.34 24.01 -2.68 23.02 -2 22 C-1.34 22 -0.68 22 0 22 C-0.33 21.01 -0.66 20.02 -1 19 C-1.09635462 16.50894976 -1.1393246 14.05259297 -1.125 11.5625 C-1.12886719 9.58443359 -1.12886719 9.58443359 -1.1328125 7.56640625 C-1.0297031 4.79761546 -0.84082567 2.60922886 0 0 Z " fill="#3499DB" transform="translate(71,57)"/>
<path d="M0 0 C0.33 0 0.66 0 1 0 C1.07927734 0.59723877 1.15855469 1.19447754 1.24023438 1.80981445 C4.68089641 26.66194442 13.12333241 48.64641703 30.91015625 66.70703125 C33 69 33 69 33 71 C33.58136719 71.25652344 34.16273437 71.51304687 34.76171875 71.77734375 C37.20406142 73.11146811 38.82365447 74.62072773 40.8125 76.5625 C50.67126089 85.46770861 62.69322049 91.26074329 75 96 C76.23169922 96.47566406 76.23169922 96.47566406 77.48828125 96.9609375 C87.02211764 100.38160349 96.95199337 101.33364005 107 102 C107 102.33 107 102.66 107 103 C71.69 103 36.38 103 0 103 C0 69.01 0 35.02 0 0 Z " fill="#F2F2F2" transform="translate(0,122)"/>
<path d="M0 0 C34.98 0 69.96 0 106 0 C106 0.33 106 0.66 106 1 C104.98421875 1.10957031 103.9684375 1.21914063 102.921875 1.33203125 C78.69559305 4.06425199 57.65740026 12.11283985 39 28 C38.15050781 28.66515625 37.30101562 29.3303125 36.42578125 30.015625 C32.80611238 32.97664237 29.96012721 36.39327185 27 40 C26.28457031 40.86625 25.56914062 41.7325 24.83203125 42.625 C18.58672067 50.53644335 14.08683681 58.81885321 10 68 C9.70963867 68.64453125 9.41927734 69.2890625 9.12011719 69.953125 C4.25267027 81.00172422 2.39513041 92.05572564 1 104 C0.67 104 0.34 104 0 104 C0 69.68 0 35.36 0 0 Z " fill="#F2F2F2" transform="translate(0,0)"/>
<path d="M0 0 C33.99 0 67.98 0 103 0 C103 33.99 103 67.98 103 103 C102.67 103 102.34 103 102 103 C101.92072266 102.40276123 101.84144531 101.80552246 101.75976562 101.19018555 C98.40012069 76.92324741 90.26853524 54.78942173 72.87109375 37.07421875 C71 35 71 35 71 33 C70.42894531 32.75378906 69.85789062 32.50757813 69.26953125 32.25390625 C66.63007863 30.79562004 64.84176687 29.04711885 62.6875 26.9375 C48.13139772 13.64249909 28.33681441 5.06663075 8.9375 2.3125 C8.07189453 2.18294922 7.20628906 2.05339844 6.31445312 1.91992188 C4.21069392 1.60610144 2.10548743 1.30200786 0 1 C0 0.67 0 0.34 0 0 Z " fill="#F0F1F1" transform="translate(122,0)"/>
<path d="M0 0 C0.33 0 0.66 0 1 0 C1 33.33 1 66.66 1 101 C-32.33 101 -65.66 101 -100 101 C-100 100.67 -100 100.34 -100 100 C-99.01902344 99.84144531 -98.03804688 99.68289062 -97.02734375 99.51953125 C-70.13887858 94.96529746 -44.72859724 83.22173186 -27 62 C-26.3709375 61.28199219 -25.741875 60.56398437 -25.09375 59.82421875 C-10.8108093 42.96241376 -2.81240422 21.76800868 0 0 Z " fill="#F2F2F2" transform="translate(224,124)"/>
<path d="M0 0 C0.33 0 0.66 0 1 0 C1 2.31 1 4.62 1 7 C1.99 7 2.98 7 4 7 C4 7.99 4 8.98 4 10 C2.68 10 1.36 10 0 10 C0 11.32 0 12.64 0 14 C1.32 14 2.64 14 4 14 C4 15.32 4 16.64 4 18 C5.32 18 6.64 18 8 18 C8 16.68 8 15.36 8 14 C7.01 14 6.02 14 5 14 C5 12.68 5 11.36 5 10 C5.99 10 6.98 10 8 10 C8 9.01 8 8.02 8 7 C9.32 7 10.64 7 12 7 C12 5.68 12 4.36 12 3 C12.99 3 13.98 3 15 3 C15.33 2.01 15.66 1.02 16 0 C16 2.31 16 4.62 16 7 C16.99 7 17.98 7 19 7 C19 5.68 19 4.36 19 3 C20.32 3 21.64 3 23 3 C23 4.32 23 5.64 23 7 C24.32 7 25.64 7 27 7 C27 7.99 27 8.98 27 10 C27.99 10 28.98 10 30 10 C30 11.32 30 12.64 30 14 C29.01 14 28.02 14 27 14 C27 13.01 27 12.02 27 11 C25.68 11 24.36 11 23 11 C23 11.99 23 12.98 23 14 C23.99 14.33 24.98 14.66 26 15 C25.154375 15.17015625 24.30875 15.3403125 23.4375 15.515625 C15.7803728 17.09669988 15.7803728 17.09669988 8.6875 20.25 C4.52608397 22.5924602 1.58614045 21.98274438 -3 21 C-3 20.01 -3 19.02 -3 18 C-4.32 18 -5.64 18 -7 18 C-7 16.68 -7 15.36 -7 14 C-7.99 14 -8.98 14 -10 14 C-10 12.68 -10 11.36 -10 10 C-9.01 10 -8.02 10 -7 10 C-7 9.01 -7 8.02 -7 7 C-5.68 7 -4.36 7 -3 7 C-3 5.68 -3 4.36 -3 3 C-2.01 3 -1.02 3 0 3 C0 2.01 0 1.02 0 0 Z M30 6 C31.32 6.33 32.64 6.66 34 7 C34 7.99 34 8.98 34 10 C32.68 10 31.36 10 30 10 C30 8.68 30 7.36 30 6 Z " fill="#EEEEEF" transform="translate(127,42)"/>
<path d="M0 0 C4.76560621 1.40164889 7.95882443 4.15411474 11 8 C11 8.66 11 9.32 11 10 C11.57492188 10.25265625 12.14984375 10.5053125 12.7421875 10.765625 C15.27097581 12.14814594 17.03935694 13.76440624 19.125 15.75 C23.70056745 19.92206483 28.59143932 23.01908138 34 26 C33.01 26.33 32.02 26.66 31 27 C30.26676204 29.01508358 30.26676204 29.01508358 30 31 C29.01 31 28.02 31 27 31 C27 29.68 27 28.36 27 27 C25.68 27 24.36 27 23 27 C23 25.68 23 24.36 23 23 C21.68 23 20.36 23 19 23 C19 21.68 19 20.36 19 19 C17.68 19 16.36 19 15 19 C15 20.32 15 21.64 15 23 C14.01 23 13.02 23 12 23 C12 24.32 12 25.64 12 27 C10.68 27 9.36 27 8 27 C8 25.68 8 24.36 8 23 C7.01 23 6.02 23 5 23 C5 21.68 5 20.36 5 19 C5.99 19 6.98 19 8 19 C8 18.01 8 17.02 8 16 C6.68 16 5.36 16 4 16 C4 14.68 4 13.36 4 12 C3.01 12 2.02 12 1 12 C0.67 13.32 0.34 14.64 0 16 C-0.99 16 -1.98 16 -3 16 C-3 14.68 -3 13.36 -3 12 C-4.32 12 -5.64 12 -7 12 C-7 10.68 -7 9.36 -7 8 C-7.99 8 -8.98 8 -10 8 C-10 6.68 -10 5.36 -10 4 C-9.01 4 -8.02 4 -7 4 C-7 3.01 -7 2.02 -7 1 C-5.68 1 -4.36 1 -3 1 C-3 1.99 -3 2.98 -3 4 C-2.01 4 -1.02 4 0 4 C0 2.68 0 1.36 0 0 Z " fill="#EDEDEE" transform="translate(22,183)"/>
<path d="M0 0 C1.32 0 2.64 0 4 0 C4 0.99 4 1.98 4 3 C3.01 3 2.02 3 1 3 C1 4.32 1 5.64 1 7 C1.99 7 2.98 7 4 7 C4 8.32 4 9.64 4 11 C5.32 11 6.64 11 8 11 C8 9.68 8 8.36 8 7 C8.99 7 9.98 7 11 7 C11 5.68 11 4.36 11 3 C12.32 3 13.64 3 15 3 C15 2.01 15 1.02 15 0 C16.32 0 17.64 0 19 0 C19 3.63 19 7.26 19 11 C17.68 11 16.36 11 15 11 C15 12.32 15 13.64 15 15 C14.01 15 13.02 15 12 15 C11.67 16.32 11.34 17.64 11 19 C10.01 19 9.02 19 8 19 C8 19.99 8 20.98 8 22 C6.68 22 5.36 22 4 22 C4 21.01 4 20.02 4 19 C2.68 18.67 1.36 18.34 0 18 C0 17.01 0 16.02 0 15 C-0.99 15 -1.98 15 -3 15 C-3.33 16.32 -3.66 17.64 -4 19 C-4.99 19 -5.98 19 -7 19 C-7 19.99 -7 20.98 -7 22 C-8.32 22 -9.64 22 -11 22 C-11 21.01 -11 20.02 -11 19 C-12.32 18.67 -13.64 18.34 -15 18 C-15 17.01 -15 16.02 -15 15 C-13.68 15 -12.36 15 -11 15 C-11 13.68 -11 12.36 -11 11 C-9.68 11 -8.36 11 -7 11 C-7 9.68 -7 8.36 -7 7 C-6.01 7 -5.02 7 -4 7 C-4 5.68 -4 4.36 -4 3 C-2.68 3 -1.36 3 0 3 C0 2.01 0 1.02 0 0 Z " fill="#F8F8F8" transform="translate(206,4)"/>
<path d="M0 0 C0.33 0 0.66 0 1 0 C1.02716824 2.54173977 1.04691969 5.08318415 1.0625 7.625 C1.07087891 8.33785156 1.07925781 9.05070312 1.08789062 9.78515625 C1.10710296 13.97344438 0.8267327 17.8728462 0 22 C-0.99 22 -1.98 22 -3 22 C-3 22.99 -3 23.98 -3 25 C-4.32 25 -5.64 25 -7 25 C-7 26.32 -7 27.64 -7 29 C-8.32 29 -9.64 29 -11 29 C-11 30.32 -11 31.64 -11 33 C-11.99 33 -12.98 33 -14 33 C-14.33 31.68 -14.66 30.36 -15 29 C-15.99 29 -16.98 29 -18 29 C-18 27.68 -18 26.36 -18 25 C-19.32 25 -20.64 25 -22 25 C-22 24.01 -22 23.02 -22 22 C-23.32 21.67 -24.64 21.34 -26 21 C-26 20.01 -26 19.02 -26 18 C-24.68 18 -23.36 18 -22 18 C-22 18.99 -22 19.98 -22 21 C-21.01 21 -20.02 21 -19 21 C-19 20.01 -19 19.02 -19 18 C-17.68 17.67 -16.36 17.34 -15 17 C-15 16.01 -15 15.02 -15 14 C-15.99 13.67 -16.98 13.34 -18 13 C-17.01 13 -16.02 13 -15 13 C-15 10.69 -15 8.38 -15 6 C-13.68 6 -12.36 6 -11 6 C-11 7.32 -11 8.64 -11 10 C-9.68 10 -8.36 10 -7 10 C-7 11.32 -7 12.64 -7 14 C-5.68 14 -4.36 14 -3 14 C-3 12.68 -3 11.36 -3 10 C-2.01 10 -1.02 10 0 10 C0 8.68 0 7.36 0 6 C-0.99 6 -1.98 6 -3 6 C-3 5.01 -3 4.02 -3 3 C-2.01 3 -1.02 3 0 3 C0 2.01 0 1.02 0 0 Z " fill="#F3F3F3" transform="translate(202,106)"/>
<path d="M0 0 C1.1039209 -0.00515625 2.2078418 -0.0103125 3.34521484 -0.015625 C10.05668118 0.04066407 16.29187949 0.71144251 22.8125 2.3125 C22.8125 4.3125 22.8125 4.3125 21 6.4375 C18.8125 8.3125 18.8125 8.3125 15.8125 8.3125 C15.4825 9.6325 15.1525 10.9525 14.8125 12.3125 C13.8225 12.3125 12.8325 12.3125 11.8125 12.3125 C11.8125 10.9925 11.8125 9.6725 11.8125 8.3125 C12.8025 8.3125 13.7925 8.3125 14.8125 8.3125 C14.8125 6.9925 14.8125 5.6725 14.8125 4.3125 C13.8225 4.3125 12.8325 4.3125 11.8125 4.3125 C11.8125 3.3225 11.8125 2.3325 11.8125 1.3125 C10.4925 1.3125 9.1725 1.3125 7.8125 1.3125 C7.8125 2.3025 7.8125 3.2925 7.8125 4.3125 C6.4925 4.3125 5.1725 4.3125 3.8125 4.3125 C3.8125 5.6325 3.8125 6.9525 3.8125 8.3125 C2.8225 8.3125 1.8325 8.3125 0.8125 8.3125 C0.4825 9.6325 0.1525 10.9525 -0.1875 12.3125 C-1.1775 12.3125 -2.1675 12.3125 -3.1875 12.3125 C-3.1875 10.9925 -3.1875 9.6725 -3.1875 8.3125 C-4.5075 8.3125 -5.8275 8.3125 -7.1875 8.3125 C-7.1875 9.6325 -7.1875 10.9525 -7.1875 12.3125 C-8.5075 12.3125 -9.8275 12.3125 -11.1875 12.3125 C-11.1875 10.9925 -11.1875 9.6725 -11.1875 8.3125 C-12.1775 8.3125 -13.1675 8.3125 -14.1875 8.3125 C-14.5175 7.3225 -14.8475 6.3325 -15.1875 5.3125 C-16.1775 4.9825 -17.1675 4.6525 -18.1875 4.3125 C-18.1875 5.6325 -18.1875 6.9525 -18.1875 8.3125 C-19.5075 8.3125 -20.8275 8.3125 -22.1875 8.3125 C-22.1875 6.9925 -22.1875 5.6725 -22.1875 4.3125 C-23.5075 3.9825 -24.8275 3.6525 -26.1875 3.3125 C-17.4924585 0.35548184 -9.10949569 0.01027725 0 0 Z " fill="#EBEDEE" transform="translate(112.1875,21.6875)"/>
<path d="M0 0 C0.99 0 1.98 0 3 0 C3.33 0.99 3.66 1.98 4 3 C4.99 3.33 5.98 3.66 7 4 C7 4.99 7 5.98 7 7 C8.32 7 9.64 7 11 7 C11 6.01 11 5.02 11 4 C11.99 4 12.98 4 14 4 C14.82421875 6.58203125 14.82421875 6.58203125 15 10 C13.34539139 12.53706654 11.83980334 14.4978094 9.8125 16.6875 C9.31685547 17.25533203 8.82121094 17.82316406 8.31054688 18.40820312 C5.7489306 21.29467431 3.21704541 23.82715071 0 26 C-0.33 24.68 -0.66 23.36 -1 22 C-1.99 22 -2.98 22 -4 22 C-4 21.01 -4 20.02 -4 19 C-3.01 18.67 -2.02 18.34 -1 18 C-0.67 17.01 -0.34 16.02 0 15 C0.99 15 1.98 15 3 15 C3 13.68 3 12.36 3 11 C2.01 11 1.02 11 0 11 C-0.33 10.01 -0.66 9.02 -1 8 C-1.99 7.67 -2.98 7.34 -4 7 C-4 6.01 -4 5.02 -4 4 C-3.01 3.67 -2.02 3.34 -1 3 C-0.67 2.01 -0.34 1.02 0 0 Z " fill="#EBECED" transform="translate(173,154)"/>
<path d="M0 0 C1.32 0 2.64 0 4 0 C4 1.32 4 2.64 4 4 C5.32 4 6.64 4 8 4 C8 3.01 8 2.02 8 1 C9.32 0.67 10.64 0.34 12 0 C12.9834496 1.43457328 13.96160921 2.87277406 14.9375 4.3125 C15.48277344 5.11300781 16.02804688 5.91351563 16.58984375 6.73828125 C18 9 18 9 19 12 C18.01 12 17.02 12 16 12 C15.67 10.68 15.34 9.36 15 8 C14.01 8 13.02 8 12 8 C12 9.32 12 10.64 12 12 C10.68 12 9.36 12 8 12 C8 10.68 8 9.36 8 8 C6.68 8 5.36 8 4 8 C4 9.32 4 10.64 4 12 C3.01 12 2.02 12 1 12 C0.67 13.32 0.34 14.64 0 16 C-0.99 16 -1.98 16 -3 16 C-3 16.99 -3 17.98 -3 19 C-4.32 19 -5.64 19 -7 19 C-7 18.01 -7 17.02 -7 16 C-6.34 15.67 -5.68 15.34 -5 15 C-4.67 14.01 -4.34 13.02 -4 12 C-4.99 12 -5.98 12 -7 12 C-7 10.68 -7 9.36 -7 8 C-5.68 8 -4.36 8 -3 8 C-3 6.68 -3 5.36 -3 4 C-2.01 4 -1.02 4 0 4 C0 2.68 0 1.36 0 0 Z " fill="#F7F7F8" transform="translate(52,142)"/>
<path d="M0 0 C0.99 0 1.98 0 3 0 C3 0.99 3 1.98 3 3 C4.32 3 5.64 3 7 3 C7 4.32 7 5.64 7 7 C8.32 7 9.64 7 11 7 C11 8.32 11 9.64 11 11 C9.68 11 8.36 11 7 11 C7 11.99 7 12.98 7 14 C6.01 14 5.02 14 4 14 C4 15.32 4 16.64 4 18 C4.99 18 5.98 18 7 18 C7 19.32 7 20.64 7 22 C5.68 22 4.36 22 3 22 C3 21.01 3 20.02 3 19 C1.68 19 0.36 19 -1 19 C-1 19.99 -1 20.98 -1 22 C-1.99 22 -2.98 22 -4 22 C-4 20.68 -4 19.36 -4 18 C-3.01 18 -2.02 18 -1 18 C-1 16.68 -1 15.36 -1 14 C-1.99 14 -2.98 14 -4 14 C-4 13.01 -4 12.02 -4 11 C-5.32 11 -6.64 11 -8 11 C-8 9.68 -8 8.36 -8 7 C-6.68 7 -5.36 7 -4 7 C-4 5.68 -4 4.36 -4 3 C-2.68 3 -1.36 3 0 3 C0 2.01 0 1.02 0 0 Z M-1 10 C-1 11.32 -1 12.64 -1 14 C0.32 14 1.64 14 3 14 C3 13.01 3 12.02 3 11 C1.68 10.67 0.36 10.34 -1 10 Z " fill="#F7F7F7" transform="translate(158,128)"/>
<path d="M0 0 C0.33 0 0.66 0 1 0 C1.00410889 0.79696289 1.00821777 1.59392578 1.01245117 2.41503906 C1.04535345 6.02744623 1.11599656 9.63815939 1.1875 13.25 C1.19330078 14.50425781 1.19910156 15.75851563 1.20507812 17.05078125 C1.23408203 18.25605469 1.26308594 19.46132812 1.29296875 20.703125 C1.31653442 22.36843262 1.31653442 22.36843262 1.34057617 24.06738281 C2.19769805 27.87921103 3.88245118 28.80200256 7 31 C7 31.66 7 32.32 7 33 C7.66 33 8.32 33 9 33 C9 33.66 9 34.32 9 35 C8.01 35 7.02 35 6 35 C6 34.01 6 33.02 6 32 C4.68 32 3.36 32 2 32 C2 32.99 2 33.98 2 35 C0.68 35 -0.64 35 -2 35 C-2 36.32 -2 37.64 -2 39 C-2.99 39 -3.98 39 -5 39 C-5 40.32 -5 41.64 -5 43 C-6.32 43 -7.64 43 -9 43 C-9 41.68 -9 40.36 -9 39 C-9.99 39 -10.98 39 -12 39 C-12 37.68 -12 36.36 -12 35 C-11.01 35 -10.02 35 -9 35 C-8.67 33.68 -8.34 32.36 -8 31 C-6.02 30.67 -4.04 30.34 -2 30 C-1.97494385 29.12674072 -1.9498877 28.25348145 -1.92407227 27.35375977 C-1.82912291 24.12397448 -1.72987971 20.89435846 -1.62768555 17.66479492 C-1.58428566 16.26510801 -1.54261436 14.86536641 -1.50268555 13.46557617 C-1.44510555 11.45738505 -1.38086 9.44938851 -1.31640625 7.44140625 C-1.27974854 6.23170166 -1.24309082 5.02199707 -1.20532227 3.77563477 C-1 1 -1 1 0 0 Z " fill="#E9ECEF" transform="translate(114,152)"/>
<path d="M0 0 C1.32 0.33 2.64 0.66 4 1 C4 1.99 4 2.98 4 4 C4.99 4 5.98 4 7 4 C7 5.32 7 6.64 7 8 C6.01 8 5.02 8 4 8 C3.67 9.32 3.34 10.64 3 12 C2.01 12 1.02 12 0 12 C0 12.99 0 13.98 0 15 C-1.32 15 -2.64 15 -4 15 C-4 16.32 -4 17.64 -4 19 C-5.32 19 -6.64 19 -8 19 C-8 18.01 -8 17.02 -8 16 C-9.32 16 -10.64 16 -12 16 C-12 16.99 -12 17.98 -12 19 C-12.99 19 -13.98 19 -15 19 C-15 17.68 -15 16.36 -15 15 C-14.01 15 -13.02 15 -12 15 C-12 13.68 -12 12.36 -12 11 C-10.68 11 -9.36 11 -8 11 C-8 10.01 -8 9.02 -8 8 C-6.68 8 -5.36 8 -4 8 C-4 6.68 -4 5.36 -4 4 C-2.68 4 -1.36 4 0 4 C0 2.68 0 1.36 0 0 Z " fill="#F7F7F7" transform="translate(19,26)"/>
<path d="M0 0 C1.32 0.33 2.64 0.66 4 1 C4 1.99 4 2.98 4 4 C4.99 4 5.98 4 7 4 C7 5.32 7 6.64 7 8 C8.32 8 9.64 8 11 8 C11 8.99 11 9.98 11 11 C9.68 11 8.36 11 7 11 C7 12.32 7 13.64 7 15 C3.37 15 -0.26 15 -4 15 C-5.28571429 7.57142857 -5.28571429 7.57142857 -4 4 C-2.68 4 -1.36 4 0 4 C0 2.68 0 1.36 0 0 Z " fill="#F5F4F4" transform="translate(169,101)"/>
<path d="M0 0 C-2 5 -4 10 -6 15 C-6.66 15 -7.32 15 -8 15 C-8 14.34 -8 13.68 -8 13 C-8.66 12.67 -9.32 12.34 -10 12 C-10 12.66 -10 13.32 -10 14 C-12.71631546 13.09456151 -15.34771188 12.07525194 -18 11 C-17.34 10.67 -16.68 10.34 -16 10 C-16 7.69 -16 5.38 -16 3 C-13.36 3 -10.72 3 -8 3 C-8 2.01 -8 1.02 -8 0 C-5.13822943 -1.43088528 -3.06624227 -0.59991697 0 0 Z " fill="#EBECEE" transform="translate(98,139)"/>
<path d="M0 0 C11.55 0 23.1 0 35 0 C35 0.33 35 0.66 35 1 C33.47632812 1.16435547 33.47632812 1.16435547 31.921875 1.33203125 C18.25326027 2.8750467 5.86521749 6.18505913 -7 11 C-7 10.01 -7 9.02 -7 8 C-6.01 7.67 -5.02 7.34 -4 7 C-3.67 6.01 -3.34 5.02 -3 4 C-2.01 4 -1.02 4 0 4 C0 2.68 0 1.36 0 0 Z " fill="#EEEFF0" transform="translate(71,0)"/>
<path d="M0 0 C0.99 0.33 1.98 0.66 3 1 C2.52949219 2.13953125 2.05898437 3.2790625 1.57421875 4.453125 C-3.10950834 16.21448415 -5.60969001 27.43424587 -7 40 C-7.33 40 -7.66 40 -8 40 C-8 29.11 -8 18.22 -8 7 C-6.68 7 -5.36 7 -4 7 C-4 6.01 -4 5.02 -4 4 C-3.01 3.67 -2.02 3.34 -1 3 C-0.67 2.01 -0.34 1.02 0 0 Z " fill="#EEEFF0" transform="translate(8,64)"/>
<path d="M0 0 C2.28819232 0.00358651 4.52719924 0.10154887 6.8046875 0.31640625 C5.4846875 0.64640625 4.1646875 0.97640625 2.8046875 1.31640625 C2.8046875 1.97640625 2.8046875 2.63640625 2.8046875 3.31640625 C3.7946875 3.31640625 4.7846875 3.31640625 5.8046875 3.31640625 C5.4746875 4.63640625 5.1446875 5.95640625 4.8046875 7.31640625 C4.1446875 7.31640625 3.4846875 7.31640625 2.8046875 7.31640625 C2.8046875 8.30640625 2.8046875 9.29640625 2.8046875 10.31640625 C1.4846875 10.31640625 0.1646875 10.31640625 -1.1953125 10.31640625 C-1.1953125 9.32640625 -1.1953125 8.33640625 -1.1953125 7.31640625 C-2.1853125 7.31640625 -3.1753125 7.31640625 -4.1953125 7.31640625 C-4.1953125 8.30640625 -4.1953125 9.29640625 -4.1953125 10.31640625 C-5.5153125 10.31640625 -6.8353125 10.31640625 -8.1953125 10.31640625 C-8.1953125 11.63640625 -8.1953125 12.95640625 -8.1953125 14.31640625 C-9.5153125 14.31640625 -10.8353125 14.31640625 -12.1953125 14.31640625 C-12.1953125 15.63640625 -12.1953125 16.95640625 -12.1953125 18.31640625 C-13.5153125 18.31640625 -14.8353125 18.31640625 -16.1953125 18.31640625 C-16.5253125 16.99640625 -16.8553125 15.67640625 -17.1953125 14.31640625 C-15.90717908 13.4776217 -14.61467994 12.64553842 -13.3203125 11.81640625 C-12.60101563 11.35234375 -11.88171875 10.88828125 -11.140625 10.41015625 C-9.1953125 9.31640625 -9.1953125 9.31640625 -7.1953125 9.31640625 C-6.9271875 8.75953125 -6.6590625 8.20265625 -6.3828125 7.62890625 C-5.795 6.48421875 -5.795 6.48421875 -5.1953125 5.31640625 C-4.8446875 4.40890625 -4.4940625 3.50140625 -4.1328125 2.56640625 C-2.1953125 0.31640625 -2.1953125 0.31640625 0 0 Z " fill="#F0F0F0" transform="translate(162.1953125,120.68359375)"/>
<path d="M0 0 C1.32 0 2.64 0 4 0 C4 0.99 4 1.98 4 3 C3.01 3 2.02 3 1 3 C1 4.32 1 5.64 1 7 C1.99 7 2.98 7 4 7 C4 8.32 4 9.64 4 11 C5.32 11 6.64 11 8 11 C8 11.99 8 12.98 8 14 C1.73 13.67 -4.54 13.34 -11 13 C-11 12.34 -11 11.68 -11 11 C-9.68 11 -8.36 11 -7 11 C-7 9.68 -7 8.36 -7 7 C-6.01 7 -5.02 7 -4 7 C-4 5.68 -4 4.36 -4 3 C-2.68 3 -1.36 3 0 3 C0 2.01 0 1.02 0 0 Z " fill="#F7F7F7" transform="translate(116,49)"/>
<path d="M0 0 C0.99 0 1.98 0 3 0 C3.33 0.99 3.66 1.98 4 3 C4.99 3.33 5.98 3.66 7 4 C7 4.99 7 5.98 7 7 C8.32 7 9.64 7 11 7 C11 8.32 11 9.64 11 11 C9.68 11 8.36 11 7 11 C7 12.32 7 13.64 7 15 C5.68 15 4.36 15 3 15 C3 13.68 3 12.36 3 11 C2.01 11 1.02 11 0 11 C-0.33 10.01 -0.66 9.02 -1 8 C-1.99 7.67 -2.98 7.34 -4 7 C-4 6.01 -4 5.02 -4 4 C-3.01 3.67 -2.02 3.34 -1 3 C-0.67 2.01 -0.34 1.02 0 0 Z " fill="#EDEDED" transform="translate(68,169)"/>
<path d="M0 0 C1.32 0 2.64 0 4 0 C4 0.99 4 1.98 4 3 C5.32 3.33 6.64 3.66 8 4 C8 4.99 8 5.98 8 7 C6.68 7 5.36 7 4 7 C4 8.32 4 9.64 4 11 C2.68 11 1.36 11 0 11 C0 10.01 0 9.02 0 8 C-1.32 8 -2.64 8 -4 8 C-4 8.99 -4 9.98 -4 11 C-4.99 11 -5.98 11 -7 11 C-7 9.68 -7 8.36 -7 7 C-6.01 7 -5.02 7 -4 7 C-4 5.68 -4 4.36 -4 3 C-2.68 3 -1.36 3 0 3 C0 2.01 0 1.02 0 0 Z M5 0 C6.98 0 8.96 0 11 0 C11 0.99 11 1.98 11 3 C9.68 3 8.36 3 7 3 C7 2.34 7 1.68 7 1 C6.34 0.67 5.68 0.34 5 0 Z " fill="#F8F8F8" transform="translate(116,184)"/>
<path d="M0 0 C0.33 0 0.66 0 1 0 C1 2.31 1 4.62 1 7 C1.99 7 2.98 7 4 7 C4 7.99 4 8.98 4 10 C2.68 10 1.36 10 0 10 C0 11.32 0 12.64 0 14 C-2.91708924 15.98362069 -4.12380904 15.9876191 -7.75 15.625 C-8.8225 15.41875 -9.895 15.2125 -11 15 C-10.67 13.35 -10.34 11.7 -10 10 C-9.01 10 -8.02 10 -7 10 C-7 9.01 -7 8.02 -7 7 C-5.68 7 -4.36 7 -3 7 C-3 5.68 -3 4.36 -3 3 C-2.01 3 -1.02 3 0 3 C0 2.01 0 1.02 0 0 Z " fill="#EFEFEF" transform="translate(82,42)"/>
<path d="M0 0 C1.32 0 2.64 0 4 0 C4 0.99 4 1.98 4 3 C3.01 3 2.02 3 1 3 C1 4.32 1 5.64 1 7 C1.99 7 2.98 7 4 7 C4 8.32 4 9.64 4 11 C5.32 11 6.64 11 8 11 C8 12.32 8 13.64 8 15 C6.68 15 5.36 15 4 15 C3.67 15.99 3.34 16.98 3 18 C0.69 16.35 -1.62 14.7 -4 13 C-3.67 12.34 -3.34 11.68 -3 11 C-2.01 11 -1.02 11 0 11 C0 9.68 0 8.36 0 7 C-1.32 7 -2.64 7 -4 7 C-4 5.68 -4 4.36 -4 3 C-2.68 3 -1.36 3 0 3 C0 2.01 0 1.02 0 0 Z " fill="#F8F8F8" transform="translate(176,4)"/>
<path d="M0 0 C1.32 0 2.64 0 4 0 C4 1.32 4 2.64 4 4 C4.99 3.67 5.98 3.34 7 3 C7.33 2.01 7.66 1.02 8 0 C8.99 0 9.98 0 11 0 C11 1.32 11 2.64 11 4 C10.01 4 9.02 4 8 4 C7.67 5.32 7.34 6.64 7 8 C6.01 8 5.02 8 4 8 C4 8.99 4 9.98 4 11 C2.68 11 1.36 11 0 11 C0 10.01 0 9.02 0 8 C-1.32 7.67 -2.64 7.34 -4 7 C-4 6.01 -4 5.02 -4 4 C-2.68 4 -1.36 4 0 4 C0 2.68 0 1.36 0 0 Z " fill="#F8F8F8" transform="translate(180,210)"/>
<path d="M0 0 C5.61 0 11.22 0 17 0 C17.33 0.99 17.66 1.98 18 3 C17.67 3.66 17.34 4.32 17 5 C16.01 5 15.02 5 14 5 C14 4.01 14 3.02 14 2 C12.68 2 11.36 2 10 2 C10 2.99 10 3.98 10 5 C8.68 5 7.36 5 6 5 C6 4.01 6 3.02 6 2 C5.01 2 4.02 2 3 2 C2.67 3.32 2.34 4.64 2 6 C1.01 6 0.02 6 -1 6 C-1 6.99 -1 7.98 -1 9 C-2.32 9 -3.64 9 -5 9 C-5 8.01 -5 7.02 -5 6 C-4.01 5.67 -3.02 5.34 -2 5 C-1.34 3.35 -0.68 1.7 0 0 Z " fill="#F8F8F7" transform="translate(50,122)"/>
<path d="M0 0 C1.14210938 0.09023438 2.28421875 0.18046875 3.4609375 0.2734375 C5.96120894 0.55124544 8.21824582 0.92550002 10.625 1.625 C10.625 3.625 10.625 3.625 8.8125 5.75 C6.625 7.625 6.625 7.625 3.625 7.625 C3.295 8.945 2.965 10.265 2.625 11.625 C1.635 11.625 0.645 11.625 -0.375 11.625 C-0.375 10.305 -0.375 8.985 -0.375 7.625 C0.615 7.625 1.605 7.625 2.625 7.625 C2.625 6.305 2.625 4.985 2.625 3.625 C1.635 3.625 0.645 3.625 -0.375 3.625 C-0.375 2.635 -0.375 1.645 -0.375 0.625 C-1.695 0.625 -3.015 0.625 -4.375 0.625 C-4.375 1.615 -4.375 2.605 -4.375 3.625 C-5.695 3.625 -7.015 3.625 -8.375 3.625 C-8.375 2.635 -8.375 1.645 -8.375 0.625 C-5.48817927 -0.81841036 -3.19665307 -0.26578913 0 0 Z " fill="#EAECED" transform="translate(124.375,22.375)"/>
<path d="M0 0 C1.32 0 2.64 0 4 0 C4 0.99 4 1.98 4 3 C4.99 3 5.98 3 7 3 C7 4.32 7 5.64 7 7 C6.01 7 5.02 7 4 7 C4 8.32 4 9.64 4 11 C2.68 11 1.36 11 0 11 C0 9.68 0 8.36 0 7 C-0.99 7 -1.98 7 -3 7 C-3 5.68 -3 4.36 -3 3 C-2.01 3 -1.02 3 0 3 C0 2.01 0 1.02 0 0 Z M8 0 C9.32 0.99 10.64 1.98 12 3 C10.35 3 8.7 3 7 3 C7.33 2.01 7.66 1.02 8 0 Z " fill="#ECECEC" transform="translate(150,34)"/>
<path d="M0 0 C0.33 0.66 0.66 1.32 1 2 C1.99 2 2.98 2 4 2 C4 3.32 4 4.64 4 6 C3.01 6 2.02 6 1 6 C0.67 7.32 0.34 8.64 0 10 C-0.99 10 -1.98 10 -3 10 C-3 10.99 -3 11.98 -3 13 C-4.32 13 -5.64 13 -7 13 C-7 12.01 -7 11.02 -7 10 C-8.32 9.67 -9.64 9.34 -11 9 C-11 8.01 -11 7.02 -11 6 C-9.68 6 -8.36 6 -7 6 C-7 6.99 -7 7.98 -7 9 C-6.01 9 -5.02 9 -4 9 C-4 8.01 -4 7.02 -4 6 C-2.68 5.67 -1.36 5.34 0 5 C0 4.01 0 3.02 0 2 C-0.99 1.67 -1.98 1.34 -3 1 C-2.01 0.67 -1.02 0.34 0 0 Z " fill="#FAFAFA" transform="translate(187,118)"/>
<path d="M0 0 C0.33 0.99 0.66 1.98 1 3 C2.32 3 3.64 3 5 3 C5 4.32 5 5.64 5 7 C3.68 7 2.36 7 1 7 C1 8.32 1 9.64 1 11 C-0.32 11 -1.64 11 -3 11 C-3 9.68 -3 8.36 -3 7 C-3.99 7 -4.98 7 -6 7 C-5.8125 5.1875 -5.8125 5.1875 -5 3 C-2.4375 1.25 -2.4375 1.25 0 0 Z " fill="#ECECEC" transform="translate(179,203)"/>
<path d="M0 0 C1.32 0 2.64 0 4 0 C4 0.99 4 1.98 4 3 C3.01 3 2.02 3 1 3 C1 4.32 1 5.64 1 7 C1.99 7 2.98 7 4 7 C4 8.32 4 9.64 4 11 C-3.50769231 10.38461538 -3.50769231 10.38461538 -6 8.4375 C-6.33 7.963125 -6.66 7.48875 -7 7 C-6.01 7 -5.02 7 -4 7 C-4 5.68 -4 4.36 -4 3 C-2.68 3 -1.36 3 0 3 C0 2.01 0 1.02 0 0 Z " fill="#F5F6F7" transform="translate(86,49)"/>
<path d="M0 0 C1.32 0 2.64 0 4 0 C4 0.99 4 1.98 4 3 C3.01 3 2.02 3 1 3 C1 4.32 1 5.64 1 7 C1.99 7 2.98 7 4 7 C4 8.32 4 9.64 4 11 C2.68 11 1.36 11 0 11 C0 10.01 0 9.02 0 8 C-1.32 8 -2.64 8 -4 8 C-4 8.99 -4 9.98 -4 11 C-4.99 11 -5.98 11 -7 11 C-7 9.68 -7 8.36 -7 7 C-6.01 7 -5.02 7 -4 7 C-4 5.68 -4 4.36 -4 3 C-2.68 3 -1.36 3 0 3 C0 2.01 0 1.02 0 0 Z " fill="#FAFAFA" transform="translate(161,169)"/>
<path d="M0 0 C1.32 0 2.64 0 4 0 C4 0.99 4 1.98 4 3 C3.01 3 2.02 3 1 3 C1 4.32 1 5.64 1 7 C1.99 7 2.98 7 4 7 C4 8.32 4 9.64 4 11 C2.68 11 1.36 11 0 11 C0 10.01 0 9.02 0 8 C-1.32 8 -2.64 8 -4 8 C-4 8.99 -4 9.98 -4 11 C-4.99 11 -5.98 11 -7 11 C-7 9.68 -7 8.36 -7 7 C-6.01 7 -5.02 7 -4 7 C-4 5.68 -4 4.36 -4 3 C-2.68 3 -1.36 3 0 3 C0 2.01 0 1.02 0 0 Z " fill="#FAFAFA" transform="translate(146,154)"/>
<path d="M0 0 C1.32 0 2.64 0 4 0 C4 0.99 4 1.98 4 3 C3.01 3 2.02 3 1 3 C1 4.32 1 5.64 1 7 C1.99 7 2.98 7 4 7 C4 8.32 4 9.64 4 11 C2.68 11 1.36 11 0 11 C0 10.01 0 9.02 0 8 C-1.32 8 -2.64 8 -4 8 C-4 8.99 -4 9.98 -4 11 C-4.99 11 -5.98 11 -7 11 C-7 9.68 -7 8.36 -7 7 C-6.01 7 -5.02 7 -4 7 C-4 5.68 -4 4.36 -4 3 C-2.68 3 -1.36 3 0 3 C0 2.01 0 1.02 0 0 Z " fill="#FAFAFA" transform="translate(41,124)"/>
<path d="M0 0 C1.32 0 2.64 0 4 0 C4 0.99 4 1.98 4 3 C3.01 3 2.02 3 1 3 C1 4.32 1 5.64 1 7 C1.99 7 2.98 7 4 7 C4 8.32 4 9.64 4 11 C2.68 11 1.36 11 0 11 C0 10.01 0 9.02 0 8 C-1.32 8 -2.64 8 -4 8 C-4 8.99 -4 9.98 -4 11 C-4.99 11 -5.98 11 -7 11 C-7 9.68 -7 8.36 -7 7 C-6.01 7 -5.02 7 -4 7 C-4 5.68 -4 4.36 -4 3 C-2.68 3 -1.36 3 0 3 C0 2.01 0 1.02 0 0 Z " fill="#FAFAFA" transform="translate(176,79)"/>
<path d="M0 0 C1.32 0 2.64 0 4 0 C4 0.99 4 1.98 4 3 C3.01 3 2.02 3 1 3 C1 4.32 1 5.64 1 7 C1.99 7 2.98 7 4 7 C4 8.32 4 9.64 4 11 C2.68 11 1.36 11 0 11 C0 10.01 0 9.02 0 8 C-1.32 8 -2.64 8 -4 8 C-4 8.99 -4 9.98 -4 11 C-4.99 11 -5.98 11 -7 11 C-7 9.68 -7 8.36 -7 7 C-6.01 7 -5.02 7 -4 7 C-4 5.68 -4 4.36 -4 3 C-2.68 3 -1.36 3 0 3 C0 2.01 0 1.02 0 0 Z " fill="#FAFAFA" transform="translate(41,79)"/>
<path d="M0 0 C0.99 0 1.98 0 3 0 C3 1.32 3 2.64 3 4 C2.01 4 1.02 4 0 4 C0 4.99 0 5.98 0 7 C1.32 7 2.64 7 4 7 C4 6.01 4 5.02 4 4 C4.99 4 5.98 4 7 4 C8 7 8 7 7.22265625 8.82421875 C6.1484375 10.54947917 5.07421875 12.27473958 4 14 C3.67 13.01 3.34 12.02 3 11 C2.01 11 1.02 11 0 11 C-0.33 10.01 -0.66 9.02 -1 8 C-1.99 7.67 -2.98 7.34 -4 7 C-4 6.01 -4 5.02 -4 4 C-3.01 3.67 -2.02 3.34 -1 3 C-0.67 2.01 -0.34 1.02 0 0 Z " fill="#E8E8E8" transform="translate(8,49)"/>
<path d="M0 0 C1.32 0 2.64 0 4 0 C4 0.99 4 1.98 4 3 C3.01 3 2.02 3 1 3 C1 4.32 1 5.64 1 7 C1.99 7 2.98 7 4 7 C4 8.32 4 9.64 4 11 C2.68 11 1.36 11 0 11 C0 10.01 0 9.02 0 8 C-1.32 8 -2.64 8 -4 8 C-4 8.99 -4 9.98 -4 11 C-4.99 11 -5.98 11 -7 11 C-7 9.68 -7 8.36 -7 7 C-6.01 7 -5.02 7 -4 7 C-4 5.68 -4 4.36 -4 3 C-2.68 3 -1.36 3 0 3 C0 2.01 0 1.02 0 0 Z " fill="#FAFAFA" transform="translate(101,34)"/>
<path d="M0 0 C1.32 0 2.64 0 4 0 C4 0.99 4 1.98 4 3 C3.01 3 2.02 3 1 3 C1 4.32 1 5.64 1 7 C1.99 7 2.98 7 4 7 C4 8.32 4 9.64 4 11 C2.68 11 1.36 11 0 11 C0 10.01 0 9.02 0 8 C-1.32 8 -2.64 8 -4 8 C-4 8.99 -4 9.98 -4 11 C-4.99 11 -5.98 11 -7 11 C-7 9.68 -7 8.36 -7 7 C-6.01 7 -5.02 7 -4 7 C-4 5.68 -4 4.36 -4 3 C-2.68 3 -1.36 3 0 3 C0 2.01 0 1.02 0 0 Z " fill="#FAFAFA" transform="translate(191,4)"/>
<path d="M0 0 C1.32 0 2.64 0 4 0 C4 0.99 4 1.98 4 3 C3.01 3 2.02 3 1 3 C1 4.32 1 5.64 1 7 C1.99 7 2.98 7 4 7 C4 8.32 4 9.64 4 11 C2.68 11 1.36 11 0 11 C0 10.01 0 9.02 0 8 C-1.32 8 -2.64 8 -4 8 C-4 8.99 -4 9.98 -4 11 C-4.99 11 -5.98 11 -7 11 C-7 9.68 -7 8.36 -7 7 C-6.01 7 -5.02 7 -4 7 C-4 5.68 -4 4.36 -4 3 C-2.68 3 -1.36 3 0 3 C0 2.01 0 1.02 0 0 Z " fill="#FAFAFA" transform="translate(26,4)"/>
<path d="M0 0 C1.32 0 2.64 0 4 0 C4 0.99 4 1.98 4 3 C3.01 3 2.02 3 1 3 C1 4.32 1 5.64 1 7 C1.99 7 2.98 7 4 7 C4 8.32 4 9.64 4 11 C2.68 11 1.36 11 0 11 C0 10.01 0 9.02 0 8 C-1.32 8 -2.64 8 -4 8 C-4 8.99 -4 9.98 -4 11 C-4.99 11 -5.98 11 -7 11 C-7 9.68 -7 8.36 -7 7 C-6.01 7 -5.02 7 -4 7 C-4 5.68 -4 4.36 -4 3 C-2.68 3 -1.36 3 0 3 C0 2.01 0 1.02 0 0 Z " fill="#FAFAFA" transform="translate(11,4)"/>
<path d="M0 0 C1.32 0 2.64 0 4 0 C4 1.32 4 2.64 4 4 C4.99 4 5.98 4 7 4 C6.67 5.98 6.34 7.96 6 10 C5.01 9.34 4.02 8.68 3 8 C3 7.34 3 6.68 3 6 C2.01 6.495 2.01 6.495 1 7 C1.99 8.485 1.99 8.485 3 10 C2.01 10.33 1.02 10.66 0 11 C0 10.01 0 9.02 0 8 C-1.32 8 -2.64 8 -4 8 C-4 6.68 -4 5.36 -4 4 C-2.68 4 -1.36 4 0 4 C0 2.68 0 1.36 0 0 Z " fill="#E3E7EA" transform="translate(60,131)"/>
<path d="M0 0 C1.32 0 2.64 0 4 0 C4 1.32 4 2.64 4 4 C4.99 3.67 5.98 3.34 7 3 C7.33 2.01 7.66 1.02 8 0 C8.99 0 9.98 0 11 0 C11 1.32 11 2.64 11 4 C10.01 4 9.02 4 8 4 C7.67 5.32 7.34 6.64 7 8 C6.01 8 5.02 8 4 8 C4 8.99 4 9.98 4 11 C2.68 11 1.36 11 0 11 C0 10.01 0 9.02 0 8 C0.66 7.67 1.32 7.34 2 7 C2.33 6.01 2.66 5.02 3 4 C2.01 4 1.02 4 0 4 C0 2.68 0 1.36 0 0 Z " fill="#FBFBFB" transform="translate(45,150)"/>
<path d="M0 0 C1.32 0 2.64 0 4 0 C2.55049545 3.7910119 0.84827434 7.3874638 -1 11 C-3.31 11 -5.62 11 -8 11 C-8 9.68 -8 8.36 -8 7 C-6.68 7 -5.36 7 -4 7 C-4 6.01 -4 5.02 -4 4 C-3.01 3.67 -2.02 3.34 -1 3 C-0.67 2.01 -0.34 1.02 0 0 Z " fill="#F4F5F5" transform="translate(94,139)"/>
<path d="M0 0 C1.32 0 2.64 0 4 0 C4 1.32 4 2.64 4 4 C4.99 3.67 5.98 3.34 7 3 C7.33 2.01 7.66 1.02 8 0 C8.99 0 9.98 0 11 0 C11 1.32 11 2.64 11 4 C10.01 4 9.02 4 8 4 C7.67 5.32 7.34 6.64 7 8 C6.01 8 5.02 8 4 8 C4 8.99 4 9.98 4 11 C2.68 11 1.36 11 0 11 C0 10.01 0 9.02 0 8 C0.66 7.67 1.32 7.34 2 7 C2.33 6.01 2.66 5.02 3 4 C2.01 4 1.02 4 0 4 C0 2.68 0 1.36 0 0 Z " fill="#FBFBFB" transform="translate(45,60)"/>
<path d="M0 0 C1.32 0 2.64 0 4 0 C4 1.32 4 2.64 4 4 C5.32 4 6.64 4 8 4 C8 3.01 8 2.02 8 1 C8.66 1 9.32 1 10 1 C9.67 2.98 9.34 4.96 9 7 C7.35 7.33 5.7 7.66 4 8 C4 7.01 4 6.02 4 5 C2.68 5 1.36 5 0 5 C0 5.99 0 6.98 0 8 C-0.99 8 -1.98 8 -3 8 C-3 6.68 -3 5.36 -3 4 C-2.01 4 -1.02 4 0 4 C0 2.68 0 1.36 0 0 Z " fill="#F8F9F9" transform="translate(187,142)"/>
<path d="M0 0 C0.66 0 1.32 0 2 0 C2 0.66 2 1.32 2 2 C2.99 2 3.98 2 5 2 C5 3.32 5 4.64 5 6 C4.01 6 3.02 6 2 6 C1.67 7.32 1.34 8.64 1 10 C0.01 10 -0.98 10 -2 10 C-2 10.99 -2 11.98 -2 13 C-3.32 13 -4.64 13 -6 13 C-6 12.01 -6 11.02 -6 10 C-5.34 9.67 -4.68 9.34 -4 9 C-2.86649466 6.98330173 -2.86649466 6.98330173 -2 5 C-1.01 5 -0.02 5 1 5 C1 4.01 1 3.02 1 2 C0.34 1.67 -0.32 1.34 -1 1 C-0.67 0.67 -0.34 0.34 0 0 Z " fill="#F8F9F9" transform="translate(171,208)"/>
<path d="M0 0 C0.66 0 1.32 0 2 0 C2.33 8.91 2.66 17.82 3 27 C2.01 27 1.02 27 0 27 C0 18.09 0 9.18 0 0 Z " fill="#F7F6F4" transform="translate(124,153)"/>
<path d="M0 0 C0.33 0 0.66 0 1 0 C1 7.26 1 14.52 1 22 C-0.65 21.67 -2.3 21.34 -4 21 C-2.68 14.07 -1.36 7.14 0 0 Z " fill="#ECF0F3" transform="translate(224,124)"/>
<path d="M0 0 C3.63 0 7.26 0 11 0 C11 0.66 11 1.32 11 2 C10.01 2 9.02 2 8 2 C7.67 3.32 7.34 4.64 7 6 C6.01 6 5.02 6 4 6 C4 6.99 4 7.98 4 9 C2.68 9 1.36 9 0 9 C0 8.01 0 7.02 0 6 C0.66 5.67 1.32 5.34 2 5 C2.33 4.01 2.66 3.02 3 2 C2.01 2 1.02 2 0 2 C0 1.34 0 0.68 0 0 Z " fill="#F8F8F8" transform="translate(165,122)"/>
<path d="M0 0 C0.33 0 0.66 0 1 0 C1 2.31 1 4.62 1 7 C1.99 7 2.98 7 4 7 C4 7.99 4 8.98 4 10 C2.68 10 1.36 10 0 10 C0 13.96 0 17.92 0 22 C-3.02093215 18.97906785 -2.46676834 15.43627928 -2.625 11.375 C-2.66367188 10.57320312 -2.70234375 9.77140625 -2.7421875 8.9453125 C-2.83653931 6.96392444 -2.91936215 4.98199355 -3 3 C-2.01 3 -1.02 3 0 3 C0 2.01 0 1.02 0 0 Z " fill="#DFE5EA" transform="translate(157,57)"/>
<path d="M0 0 C0 0.99 0 1.98 0 3 C-0.99 3.33 -1.98 3.66 -3 4 C-4.20882096 6.00016466 -4.20882096 6.00016466 -5 8 C-5.66 8 -6.32 8 -7 8 C-7 8.99 -7 9.98 -7 11 C-8.32 11 -9.64 11 -11 11 C-11 9.68 -11 8.36 -11 7 C-9.68 7 -8.36 7 -7 7 C-7 6.01 -7 5.02 -7 4 C-7.99 3.67 -8.98 3.34 -10 3 C-3.375 -1.125 -3.375 -1.125 0 0 Z " fill="#EAEBED" transform="translate(172,210)"/>
<path d="M0 0 C0.33 1.32 0.66 2.64 1 4 C2.32 4 3.64 4 5 4 C5 5.32 5 6.64 5 8 C3.68 8 2.36 8 1 8 C1.33 8.99 1.66 9.98 2 11 C2.99 11.33 3.98 11.66 5 12 C5 12.99 5 13.98 5 15 C3.68 15 2.36 15 1 15 C1 14.01 1 13.02 1 12 C0.01 12 -0.98 12 -2 12 C-1 3.42857143 -1 3.42857143 0 0 Z " fill="#E3E7EA" transform="translate(25,86)"/>
<path d="M0 0 C3.3 0.99 6.6 1.98 10 3 C9.67 3.66 9.34 4.32 9 5 C8.01 5 7.02 5 6 5 C5.67 6.32 5.34 7.64 5 9 C4.01 9 3.02 9 2 9 C2 7.68 2 6.36 2 5 C0.68 5 -0.64 5 -2 5 C-2 4.01 -2 3.02 -2 2 C-1.34 2 -0.68 2 0 2 C0 1.34 0 0.68 0 0 Z " fill="#E9ECED" transform="translate(137,25)"/>
<path d="M0 0 C1.32 0 2.64 0 4 0 C4 0.99 4 1.98 4 3 C3.01 3 2.02 3 1 3 C1 4.32 1 5.64 1 7 C1.99 7 2.98 7 4 7 C4 8.32 4 9.64 4 11 C2.68 11 1.36 11 0 11 C0 10.01 0 9.02 0 8 C-1.32 8 -2.64 8 -4 8 C-4 6.35 -4 4.7 -4 3 C-2.68 3 -1.36 3 0 3 C0 2.01 0 1.02 0 0 Z " fill="#F9F9F9" transform="translate(56,169)"/>
<path d="M0 0 C0.99 0 1.98 0 3 0 C3 1.32 3 2.64 3 4 C2.01 4 1.02 4 0 4 C-0.33 5.32 -0.66 6.64 -1 8 C-1.99 8 -2.98 8 -4 8 C-4 8.99 -4 9.98 -4 11 C-5.32 11 -6.64 11 -8 11 C-8.33 9.02 -8.66 7.04 -9 5 C-8.67 5.66 -8.34 6.32 -8 7 C-7.01 7 -6.02 7 -5 7 C-5 6.01 -5 5.02 -5 4 C-4.360625 3.896875 -3.72125 3.79375 -3.0625 3.6875 C-2.381875 3.460625 -1.70125 3.23375 -1 3 C-0.67 2.01 -0.34 1.02 0 0 Z " fill="#FAFAFA" transform="translate(218,165)"/>
<path d="M0 0 C1.32 0 2.64 0 4 0 C4 1.32 4 2.64 4 4 C5.32 4 6.64 4 8 4 C8 5.32 8 6.64 8 8 C6.68 8 5.36 8 4 8 C4 7.01 4 6.02 4 5 C2.68 5 1.36 5 0 5 C0 5.99 0 6.98 0 8 C-0.99 8 -1.98 8 -3 8 C-3 6.68 -3 5.36 -3 4 C-2.01 4 -1.02 4 0 4 C0 2.68 0 1.36 0 0 Z " fill="#FAFAFA" transform="translate(37,202)"/>
<path d="M0 0 C1.32 0 2.64 0 4 0 C4 1.32 4 2.64 4 4 C5.32 4 6.64 4 8 4 C8 5.32 8 6.64 8 8 C6.68 8 5.36 8 4 8 C4 7.01 4 6.02 4 5 C2.68 5 1.36 5 0 5 C0 5.99 0 6.98 0 8 C-0.99 8 -1.98 8 -3 8 C-3 6.68 -3 5.36 -3 4 C-2.01 4 -1.02 4 0 4 C0 2.68 0 1.36 0 0 Z " fill="#FAFAFA" transform="translate(7,172)"/>
<path d="M0 0 C1.32 0 2.64 0 4 0 C4 0.99 4 1.98 4 3 C3.01 3 2.02 3 1 3 C1 4.32 1 5.64 1 7 C1.99 7 2.98 7 4 7 C4 8.32 4 9.64 4 11 C2.68 11 1.36 11 0 11 C0 9.68 0 8.36 0 7 C-1.32 7 -2.64 7 -4 7 C-4 5.68 -4 4.36 -4 3 C-2.68 3 -1.36 3 0 3 C0 2.01 0 1.02 0 0 Z " fill="#FAFAFA" transform="translate(131,49)"/>
<path d="M0 0 C0.99 1.485 0.99 1.485 2 3 C1.34 3 0.68 3 0 3 C-0.33 3.99 -0.66 4.98 -1 6 C-1.99 6 -2.98 6 -4 6 C-4 5.01 -4 4.02 -4 3 C-5.32 3 -6.64 3 -8 3 C-8 1.68 -8 0.36 -8 -1 C-4.61185031 -2.21005346 -2.99885764 -1.99923843 0 0 Z " fill="#EDF0F2" transform="translate(38,196)"/>
<path d="M0 0 C0.99 0 1.98 0 3 0 C3 0.99 3 1.98 3 3 C4.32 3 5.64 3 7 3 C7 4.32 7 5.64 7 7 C8.32 7 9.64 7 11 7 C11 7.99 11 8.98 11 10 C5.9427194 9.55376936 3.49357358 7.49357358 0 4 C0 2.68 0 1.36 0 0 Z " fill="#EAEBEC" transform="translate(53,177)"/>
<path d="M0 0 C1.32 0.33 2.64 0.66 4 1 C4 1.99 4 2.98 4 4 C5.32 4 6.64 4 8 4 C8 5.32 8 6.64 8 8 C6.68 8 5.36 8 4 8 C4 7.01 4 6.02 4 5 C3.01 5 2.02 5 1 5 C1 5.99 1 6.98 1 8 C-0.32 7.67 -1.64 7.34 -3 7 C-2.01 4.69 -1.02 2.38 0 0 Z " fill="#E7E9EB" transform="translate(217,153)"/>
<path d="M0 0 C5.75 0.75 5.75 0.75 8 3 C7.625 5.625 7.625 5.625 7 8 C6.01 8 5.02 8 4 8 C4 8.99 4 9.98 4 11 C3.01 11 2.02 11 1 11 C1 9.68 1 8.36 1 7 C1.99 7 2.98 7 4 7 C4 6.01 4 5.02 4 4 C2.68 4 1.36 4 0 4 C0 2.68 0 1.36 0 0 Z " fill="#E4E7EA" transform="translate(41,120)"/>
<path d="M0 0 C5.94 0 11.88 0 18 0 C18 0.66 18 1.32 18 2 C18.99 2.33 19.98 2.66 21 3 C13.6094524 3.14715692 6.35575165 2.70776992 -1 2 C-0.67 1.34 -0.34 0.68 0 0 Z " fill="#F2F3F4" transform="translate(162,118)"/>
<path d="M0 0 C1.32 0 2.64 0 4 0 C4 1.32 4 2.64 4 4 C4.99 4 5.98 4 7 4 C7 4.99 7 5.98 7 7 C7.99 7.33 8.98 7.66 10 8 C4.73946963 8.31563182 1.55426184 7.66590937 -3 5 C-2.01 4.67 -1.02 4.34 0 4 C0 2.68 0 1.36 0 0 Z " fill="#E6EAED" transform="translate(90,56)"/>
<path d="M0 0 C3.89005129 0.22228864 4.98755638 0.98755638 7.8125 3.8125 C10 7 10 7 10 11 C9.01 11 8.02 11 7 11 C7 9.68 7 8.36 7 7 C5.68 7 4.36 7 3 7 C3 5.68 3 4.36 3 3 C2.01 3 1.02 3 0 3 C0 2.01 0 1.02 0 0 Z " fill="#EAEBEC" transform="translate(177,53)"/>
<path d="M0 0 C0.72703125 0.13277344 1.4540625 0.26554688 2.203125 0.40234375 C9.45797728 1.67659345 16.65194992 2.50491861 24 3 C24 3.33 24 3.66 24 4 C16.08 4 8.16 4 0 4 C0 2.68 0 1.36 0 0 Z " fill="#D9E5EE" transform="translate(83,221)"/>
<path d="M0 0 C0.33 0 0.66 0 1 0 C1 2.31 1 4.62 1 7 C1.99 7 2.98 7 4 7 C4 7.99 4 8.98 4 10 C2.68 10 1.36 10 0 10 C0 9.01 0 8.02 0 7 C-0.99 7 -1.98 7 -3 7 C-3 5.68 -3 4.36 -3 3 C-2.01 3 -1.02 3 0 3 C0 2.01 0 1.02 0 0 Z M-4 10 C-2.68 10 -1.36 10 0 10 C0 11.32 0 12.64 0 14 C-0.99 14 -1.98 14 -3 14 C-3.33 12.68 -3.66 11.36 -4 10 Z " fill="#EAEAEA" transform="translate(52,162)"/>
<path d="M0 0 C1.32 0 2.64 0 4 0 C4 1.32 4 2.64 4 4 C4.99 4.33 5.98 4.66 7 5 C5.375 6.5625 5.375 6.5625 3 8 C-0.25 7.6875 -0.25 7.6875 -3 7 C-3 6.01 -3 5.02 -3 4 C-2.01 4 -1.02 4 0 4 C0 2.68 0 1.36 0 0 Z " fill="#EAECED" transform="translate(161,180)"/>
<path d="M0 0 C0.33 1.32 0.66 2.64 1 4 C0.01 4 -0.98 4 -2 4 C-2 5.32 -2 6.64 -2 8 C-3.32 8 -4.64 8 -6 8 C-6 9.32 -6 10.64 -6 12 C-7.32 12 -8.64 12 -10 12 C-10.33 10.68 -10.66 9.36 -11 8 C-9.71186658 7.16121545 -8.41936744 6.32913217 -7.125 5.5 C-6.40570313 5.0359375 -5.68640625 4.571875 -4.9453125 4.09375 C-3 3 -3 3 -1 3 C-0.67 2.01 -0.34 1.02 0 0 Z " fill="#DDE3E8" transform="translate(156,127)"/>
<path d="M0 0 C0.33 0 0.66 0 1 0 C1.33 4.95 1.66 9.9 2 15 C1.34 15 0.68 15 0 15 C-0.33 15.66 -0.66 16.32 -1 17 C-2.32 16.34 -3.64 15.68 -5 15 C-5 13.68 -5 12.36 -5 11 C-4.01 11 -3.02 11 -2 11 C-1.34 7.37 -0.68 3.74 0 0 Z " fill="#DCE5EC" transform="translate(69,64)"/>
<path d="M0 0 C0.33 0 0.66 0 1 0 C1.99 6.6 2.98 13.2 4 20 C2.68 20 1.36 20 0 20 C0 13.4 0 6.8 0 0 Z " fill="#E0E8EE" transform="translate(0,122)"/>
<path d="M0 0 C1.32 0 2.64 0 4 0 C4 0.99 4 1.98 4 3 C4.99 3 5.98 3 7 3 C7 3.99 7 4.98 7 6 C4.35261084 7.4606285 3.10551666 8 0 8 C0 5.36 0 2.72 0 0 Z " fill="#F2F3F4" transform="translate(135,53)"/>
<path d="M0 0 C0.99 0 1.98 0 3 0 C2.69894935 3.61260785 2.29131912 4.74509577 -0.5 7.1875 C-1.7375 8.0846875 -1.7375 8.0846875 -3 9 C-3.33 9.66 -3.66 10.32 -4 11 C-5.32 11 -6.64 11 -8 11 C-8 10.01 -8 9.02 -8 8 C-6.68 8 -5.36 8 -4 8 C-4 6.68 -4 5.36 -4 4 C-2.68 4 -1.36 4 0 4 C0 2.68 0 1.36 0 0 Z " fill="#F5F8FA" transform="translate(34,26)"/>
<path d="M0 0 C6.6 0 13.2 0 20 0 C19.67 1.32 19.34 2.64 19 4 C9.595 2.515 9.595 2.515 0 1 C0 0.67 0 0.34 0 0 Z " fill="#E0E8EE" transform="translate(122,0)"/>
<path d="M0 0 C1.32 0 2.64 0 4 0 C4 6.6 4 13.2 4 20 C3.67 20 3.34 20 3 20 C2.01 13.4 1.02 6.8 0 0 Z " fill="#E3E9EE" transform="translate(221,83)"/>
<path d="M0 0 C1.32 0.33 2.64 0.66 4 1 C4 1.99 4 2.98 4 4 C2.68 4 1.36 4 0 4 C0 2.68 0 1.36 0 0 Z M-7 1 C-5.68 1 -4.36 1 -3 1 C-3 1.99 -3 2.98 -3 4 C-2.01 4 -1.02 4 0 4 C0 5.32 0 6.64 0 8 C-0.99 8 -1.98 8 -3 8 C-3 7.01 -3 6.02 -3 5 C-4.32 4.67 -5.64 4.34 -7 4 C-7 3.01 -7 2.02 -7 1 Z " fill="#E9E9E9" transform="translate(157,48)"/>
<path d="M0 0 C0 0.99 0 1.98 0 3 C-0.99 3 -1.98 3 -3 3 C-3.33 4.32 -3.66 5.64 -4 7 C-4.99 7 -5.98 7 -7 7 C-7 7.99 -7 8.98 -7 10 C-8.32 10 -9.64 10 -11 10 C-11 9.01 -11 8.02 -11 7 C-10.01 6.67 -9.02 6.34 -8 6 C-7.67 5.01 -7.34 4.02 -7 3 C-2.66666667 0 -2.66666667 0 0 0 Z " fill="#F8F9FA" transform="translate(101,181)"/>
<path d="M0 0 C1.32 0 2.64 0 4 0 C4 1.32 4 2.64 4 4 C4.99 4 5.98 4 7 4 C7 4.99 7 5.98 7 7 C5.68 7 4.36 7 3 7 C0 2.92857143 0 2.92857143 0 0 Z M-1 7 C0.32 7 1.64 7 3 7 C3 8.32 3 9.64 3 11 C2.01 11 1.02 11 0 11 C-0.33 9.68 -0.66 8.36 -1 7 Z " fill="#E5E7E9" transform="translate(124,180)"/>
<path d="M0 0 C1.32 0 2.64 0 4 0 C3.45276317 3.37462715 2.9451 5.08235 1 8 C-0.65 7.67 -2.3 7.34 -4 7 C-4 6.01 -4 5.02 -4 4 C-2.68 4 -1.36 4 0 4 C0 2.68 0 1.36 0 0 Z " fill="#F6F7F7" transform="translate(180,165)"/>
<path d="M0 0 C0.99 0 1.98 0 3 0 C3 1.32 3 2.64 3 4 C2.01 4 1.02 4 0 4 C0 4.99 0 5.98 0 7 C0.99 7 1.98 7 3 7 C3 8.32 3 9.64 3 11 C2.01 11 1.02 11 0 11 C-0.33 10.01 -0.66 9.02 -1 8 C-1.99 7.67 -2.98 7.34 -4 7 C-4 6.01 -4 5.02 -4 4 C-3.01 3.67 -2.02 3.34 -1 3 C-0.67 2.01 -0.34 1.02 0 0 Z " fill="#E8E8E8" transform="translate(53,94)"/>
<path d="M0 0 C0.99 0 1.98 0 3 0 C3 1.32 3 2.64 3 4 C2.01 4 1.02 4 0 4 C0 4.99 0 5.98 0 7 C0.99 7 1.98 7 3 7 C3 8.32 3 9.64 3 11 C2.01 11 1.02 11 0 11 C-0.33 10.01 -0.66 9.02 -1 8 C-1.99 7.67 -2.98 7.34 -4 7 C-4 6.01 -4 5.02 -4 4 C-3.01 3.67 -2.02 3.34 -1 3 C-0.67 2.01 -0.34 1.02 0 0 Z " fill="#E8E8E8" transform="translate(173,64)"/>
<path d="M0 0 C0.99 0 1.98 0 3 0 C3.33 0.99 3.66 1.98 4 3 C4.99 3.33 5.98 3.66 7 4 C7 4.99 7 5.98 7 7 C5.68 7 4.36 7 3 7 C3 6.01 3 5.02 3 4 C2.01 4 1.02 4 0 4 C0 4.99 0 5.98 0 7 C-1.32 7 -2.64 7 -4 7 C-4 6.01 -4 5.02 -4 4 C-3.01 3.67 -2.02 3.34 -1 3 C-0.67 2.01 -0.34 1.02 0 0 Z " fill="#E9E9E9" transform="translate(203,34)"/>
<path d="M0 0 C0.99 0 1.98 0 3 0 C2.34 3.63 1.68 7.26 1 11 C0.67 9.68 0.34 8.36 0 7 C-1.32 7 -2.64 7 -4 7 C-4 5.68 -4 4.36 -4 3 C-2.68 3 -1.36 3 0 3 C0 2.01 0 1.02 0 0 Z " fill="#E0E5EA" transform="translate(199,128)"/>
<path d="M0 0 C0.99 0 1.98 0 3 0 C3 0.99 3 1.98 3 3 C4.32 3 5.64 3 7 3 C7 4.32 7 5.64 7 7 C5.68 7 4.36 7 3 7 C3 6.01 3 5.02 3 4 C2.01 4 1.02 4 0 4 C0 4.66 0 5.32 0 6 C-0.99 5.67 -1.98 5.34 -3 5 C-3 4.34 -3 3.68 -3 3 C-2.01 3 -1.02 3 0 3 C0 2.01 0 1.02 0 0 Z " fill="#F7F9FA" transform="translate(203,38)"/>
<path d="M0 0 C0.99 0 1.98 0 3 0 C3 1.32 3 2.64 3 4 C1.68 4 0.36 4 -1 4 C-1 4.99 -1 5.98 -1 7 C-2.32 7 -3.64 7 -5 7 C-5 6.01 -5 5.02 -5 4 C-5.99 4 -6.98 4 -8 4 C-8 3.01 -8 2.02 -8 1 C-5.03 1.33 -2.06 1.66 1 2 C0.67 1.34 0.34 0.68 0 0 Z " fill="#F9F9FA" transform="translate(136,180)"/>
<path d="M0 0 C1.32 0 2.64 0 4 0 C4 0.99 4 1.98 4 3 C4.99 3 5.98 3 7 3 C7 4.32 7 5.64 7 7 C6.01 7 5.02 7 4 7 C4 6.01 4 5.02 4 4 C2.68 4 1.36 4 0 4 C0 2.68 0 1.36 0 0 Z M7 1 C7.99 1.33 8.98 1.66 10 2 C10 2.66 10 3.32 10 4 C9.01 3.67 8.02 3.34 7 3 C7 2.34 7 1.68 7 1 Z " fill="#F7F9FA" transform="translate(15,180)"/>
<path d="M0 0 C0.99 0 1.98 0 3 0 C3 1.32 3 2.64 3 4 C2.01 4 1.02 4 0 4 C0 4.99 0 5.98 0 7 C1.32 7.33 2.64 7.66 4 8 C2.02 8.99 2.02 8.99 0 10 C-0.33 9.01 -0.66 8.02 -1 7 C-1.99 7 -2.98 7 -4 7 C-4 6.01 -4 5.02 -4 4 C-3.01 3.67 -2.02 3.34 -1 3 C-0.67 2.01 -0.34 1.02 0 0 Z " fill="#E3E7E9" transform="translate(143,49)"/>
<path d="M0 0 C0.33 0 0.66 0 1 0 C1 4.29 1 8.58 1 13 C-0.32 13.33 -1.64 13.66 -3 14 C-3 12.68 -3 11.36 -3 10 C-2.01 10 -1.02 10 0 10 C0 8.68 0 7.36 0 6 C-0.99 6 -1.98 6 -3 6 C-3 5.01 -3 4.02 -3 3 C-2.01 3 -1.02 3 0 3 C0 2.01 0 1.02 0 0 Z " fill="#FEFCFA" transform="translate(202,106)"/>
<path d="M0 0 C1.32 0 2.64 0 4 0 C4 1.98 4 3.96 4 6 C1.69 6.33 -0.62 6.66 -3 7 C-3 6.01 -3 5.02 -3 4 C-2.01 4 -1.02 4 0 4 C0 2.68 0 1.36 0 0 Z " fill="#E3E7EB" transform="translate(131,195)"/>
<path d="M0 0 C0.99 0 1.98 0 3 0 C3 0.99 3 1.98 3 3 C4.32 3 5.64 3 7 3 C7 2.01 7 1.02 7 0 C8.32 0 9.64 0 11 0 C10.67 1.32 10.34 2.64 10 4 C6.04 4 2.08 4 -2 4 C-1.34 3.67 -0.68 3.34 0 3 C0 2.01 0 1.02 0 0 Z " fill="#FEFCFB" transform="translate(109,199)"/>
<path d="M0 0 C1.32 0 2.64 0 4 0 C4 0.99 4 1.98 4 3 C5.98 3 7.96 3 10 3 C9.01 3.495 9.01 3.495 8 4 C8 4.99 8 5.98 8 7 C5.6875 6.875 5.6875 6.875 3 6 C1.1875 2.9375 1.1875 2.9375 0 0 Z " fill="#E6E8EA" transform="translate(157,79)"/>
<path d="M0 0 C1.32 0 2.64 0 4 0 C4 0.99 4 1.98 4 3 C4.66 3 5.32 3 6 3 C5.67 3.99 5.34 4.98 5 6 C4.67 5.34 4.34 4.68 4 4 C3.01 4 2.02 4 1 4 C1 4.99 1 5.98 1 7 C-0.32 7 -1.64 7 -3 7 C-3 6.01 -3 5.02 -3 4 C-2.01 4 -1.02 4 0 4 C0 2.68 0 1.36 0 0 Z " fill="#F9FAFA" transform="translate(11,49)"/>
<path d="M0 0 C1.18851563 0.10183594 2.37703125 0.20367188 3.6015625 0.30859375 C4.51679688 0.39238281 5.43203125 0.47617187 6.375 0.5625 C2.75 3.5625 2.75 3.5625 -0.625 3.5625 C-0.625 2.5725 -0.625 1.5825 -0.625 0.5625 C-1.945 0.5625 -3.265 0.5625 -4.625 0.5625 C-4.625 1.5525 -4.625 2.5425 -4.625 3.5625 C-5.945 3.5625 -7.265 3.5625 -8.625 3.5625 C-8.625 2.5725 -8.625 1.5825 -8.625 0.5625 C-5.68113377 -0.90943312 -3.25109964 -0.28686173 0 0 Z " fill="#DBE3E9" transform="translate(124.625,22.4375)"/>
<path d="M0 0 C3.96 0 7.92 0 12 0 C11.01 0.495 11.01 0.495 10 1 C10 1.99 10 2.98 10 4 C9.01 4 8.02 4 7 4 C7 3.01 7 2.02 7 1 C5.68 1 4.36 1 3 1 C3 1.99 3 2.98 3 4 C1.68 4 0.36 4 -1 4 C-0.67 2.68 -0.34 1.36 0 0 Z " fill="#FEFCFA" transform="translate(106,22)"/>
<path d="M0 0 C0.99 0 1.98 0 3 0 C3 1.32 3 2.64 3 4 C2.01 4 1.02 4 0 4 C0 4.99 0 5.98 0 7 C0.66 7.33 1.32 7.66 2 8 C1.01 8.33 0.02 8.66 -1 9 C-1 8.34 -1 7.68 -1 7 C-1.99 7 -2.98 7 -4 7 C-4 5.68 -4 4.36 -4 3 C-2.68 3 -1.36 3 0 3 C0 2.01 0 1.02 0 0 Z " fill="#F9FAFA" transform="translate(53,8)"/>
<path d="M0 0 C1.32 0 2.64 0 4 0 C4 1.32 4 2.64 4 4 C4.99 4 5.98 4 7 4 C7 4.66 7 5.32 7 6 C3.625 6.125 3.625 6.125 0 6 C-0.66 5.34 -1.32 4.68 -2 4 C-1.34 4 -0.68 4 0 4 C0 2.68 0 1.36 0 0 Z " fill="#F4F6F7" transform="translate(90,195)"/>
<path d="M0 0 C1.32 0 2.64 0 4 0 C4 0.99 4 1.98 4 3 C4.99 3 5.98 3 7 3 C7 4.32 7 5.64 7 7 C6.01 7 5.02 7 4 7 C4 6.01 4 5.02 4 4 C2.68 3.67 1.36 3.34 0 3 C0 2.01 0 1.02 0 0 Z M8 0 C8.66 0.99 9.32 1.98 10 3 C9.01 3 8.02 3 7 3 C7.33 2.01 7.66 1.02 8 0 Z " fill="#E7E8E9" transform="translate(60,124)"/>
<path d="M0 0 C4.75 0.75 4.75 0.75 7 3 C7 4.32 7 5.64 7 7 C5.68 7 4.36 7 3 7 C3 5.68 3 4.36 3 3 C2.01 3 1.02 3 0 3 C0 2.01 0 1.02 0 0 Z " fill="#FAFAF9" transform="translate(68,128)"/>
<path d="M0 0 C1.32 0.33 2.64 0.66 4 1 C3.34 2.32 2.68 3.64 2 5 C1.34 4.67 0.68 4.34 0 4 C0 4.99 0 5.98 0 7 C-1.32 7 -2.64 7 -4 7 C-4 5.68 -4 4.36 -4 3 C-2.68 3 -1.36 3 0 3 C0 2.01 0 1.02 0 0 Z " fill="#E8E9EA" transform="translate(195,139)"/>
<path d="M0 0 C3.71888239 0.50712033 6.73454239 1.11608215 10 3 C9.34 3 8.68 3 8 3 C8 3.99 8 4.98 8 6 C6.68 6 5.36 6 4 6 C4 5.01 4 4.02 4 3 C3.01 3 2.02 3 1 3 C0.67 2.01 0.34 1.02 0 0 Z " fill="#F7F8F8" transform="translate(82,136)"/>
<path d="M0 0 C0.33 0 0.66 0 1 0 C1 1.65 1 3.3 1 5 C-0.32 5.33 -1.64 5.66 -3 6 C-3 6.99 -3 7.98 -3 9 C-4.32 9 -5.64 9 -7 9 C-7 8.01 -7 7.02 -7 6 C-6.01 5.67 -5.02 5.34 -4 5 C-3.67 4.01 -3.34 3.02 -3 2 C-2.01 2 -1.02 2 0 2 C0 1.34 0 0.68 0 0 Z " fill="#FBFBFB" transform="translate(187,62)"/>
<path d="M0 0 C0.99 0.33 1.98 0.66 3 1 C3 1.99 3 2.98 3 4 C2.01 4 1.02 4 0 4 C-0.33 5.32 -0.66 6.64 -1 8 C-1.99 8 -2.98 8 -4 8 C-4 6.68 -4 5.36 -4 4 C-3.01 4 -2.02 4 -1 4 C-1.33 3.01 -1.66 2.02 -2 1 C-1.34 0.67 -0.68 0.34 0 0 Z " fill="#E5E7E9" transform="translate(83,26)"/>
<path d="M0 0 C6.27 0 12.54 0 19 0 C19 0.33 19 0.66 19 1 C9.595 1.99 9.595 1.99 0 3 C0 2.01 0 1.02 0 0 Z " fill="#D4E2ED" transform="translate(87,0)"/>
<path d="M0 0 C2.28304899 0.0179485 4.52425196 0.11763285 6.796875 0.33203125 C5.476875 0.66203125 4.156875 0.99203125 2.796875 1.33203125 C2.796875 1.99203125 2.796875 2.65203125 2.796875 3.33203125 C1.476875 3.33203125 0.156875 3.33203125 -1.203125 3.33203125 C-1.203125 4.32203125 -1.203125 5.31203125 -1.203125 6.33203125 C-2.523125 6.00203125 -3.843125 5.67203125 -5.203125 5.33203125 C-4.06475685 2.29638286 -3.36675282 0.50740069 0 0 Z " fill="#D3DFEA" transform="translate(162.203125,120.66796875)"/>
<path d="M0 0 C1.32 0 2.64 0 4 0 C4 0.99 4 1.98 4 3 C4.99 3.33 5.98 3.66 7 4 C7 4.99 7 5.98 7 7 C2.25 6.25 2.25 6.25 0 4 C0 2.68 0 1.36 0 0 Z " fill="#E6E8EA" transform="translate(180,19)"/>
<path d="M0 0 C2.475 0.99 2.475 0.99 5 2 C4.67 2.66 4.34 3.32 4 4 C3.01 4 2.02 4 1 4 C1 4.99 1 5.98 1 7 C-0.32 7 -1.64 7 -3 7 C-3 6.01 -3 5.02 -3 4 C-2.34 3.67 -1.68 3.34 -1 3 C-0.67 2.01 -0.34 1.02 0 0 Z " fill="#F9F9F9" transform="translate(63,214)"/>
<path d="M0 0 C0.99 0.33 1.98 0.66 3 1 C3.6875 3.0625 3.6875 3.0625 4 5 C2.68 5 1.36 5 0 5 C0 5.99 0 6.98 0 8 C-0.99 8 -1.98 8 -3 8 C-3 6.68 -3 5.36 -3 4 C-2.01 4 -1.02 4 0 4 C0 2.68 0 1.36 0 0 Z " fill="#F9F9F9" transform="translate(7,157)"/>
<path d="M0 0 C1.32 0 2.64 0 4 0 C4 0.99 4 1.98 4 3 C4.99 3 5.98 3 7 3 C7 3.99 7 4.98 7 6 C2.25 5.125 2.25 5.125 0 4 C0 2.68 0 1.36 0 0 Z " fill="#F7F8F9" transform="translate(75,143)"/>
<path d="M0 0 C0.99 0 1.98 0 3 0 C2.34 5.61 1.68 11.22 1 17 C0.67 17 0.34 17 0 17 C0 11.39 0 5.78 0 0 Z " fill="#DAE5EE" transform="translate(0,87)"/>
<path d="M0 0 C0.99 0 1.98 0 3 0 C3 1.32 3 2.64 3 4 C2.01 4 1.02 4 0 4 C-0.33 5.32 -0.66 6.64 -1 8 C-2.5 6.625 -2.5 6.625 -4 5 C-4 4.34 -4 3.68 -4 3 C-3.01 2.67 -2.02 2.34 -1 2 C-0.67 1.34 -0.34 0.68 0 0 Z " fill="#F9F9F9" transform="translate(218,60)"/>
<path d="M0 0 C0 1.32 0 2.64 0 4 C-1.32 4 -2.64 4 -4 4 C-4 4.99 -4 5.98 -4 7 C-4.99 7 -5.98 7 -7 7 C-7 6.34 -7 5.68 -7 5 C-7.66 4.67 -8.32 4.34 -9 4 C-2.25 0 -2.25 0 0 0 Z " fill="#E6E8EA" transform="translate(75,30)"/>
<path d="M0 0 C1.32 0 2.64 0 4 0 C4 0.99 4 1.98 4 3 C3.01 3 2.02 3 1 3 C1 4.32 1 5.64 1 7 C-1.475 6.01 -1.475 6.01 -4 5 C-4 4.34 -4 3.68 -4 3 C-2.68 3 -1.36 3 0 3 C0 2.01 0 1.02 0 0 Z " fill="#F9F9F9" transform="translate(161,4)"/>
<path d="M0 0 C1.32 0 2.64 0 4 0 C4 0.99 4 1.98 4 3 C3.01 3 2.02 3 1 3 C0.67 4.32 0.34 5.64 0 7 C-0.99 7 -1.98 7 -3 7 C-3 5.68 -3 4.36 -3 3 C-2.01 3 -1.02 3 0 3 C0 2.01 0 1.02 0 0 Z " fill="#E9E9E9" transform="translate(202,207)"/>
<path d="M0 0 C1.32 0 2.64 0 4 0 C4 0.99 4 1.98 4 3 C3.01 3 2.02 3 1 3 C0.67 4.32 0.34 5.64 0 7 C-0.99 7 -1.98 7 -3 7 C-3 5.68 -3 4.36 -3 3 C-2.01 3 -1.02 3 0 3 C0 2.01 0 1.02 0 0 Z " fill="#E9E9E9" transform="translate(187,207)"/>
<path d="M0 0 C1.32 0 2.64 0 4 0 C4 0.99 4 1.98 4 3 C3.01 3 2.02 3 1 3 C0.67 4.32 0.34 5.64 0 7 C-0.99 7 -1.98 7 -3 7 C-3 5.68 -3 4.36 -3 3 C-2.01 3 -1.02 3 0 3 C0 2.01 0 1.02 0 0 Z " fill="#E9E9E9" transform="translate(37,207)"/>
<path d="M0 0 C1.32 0 2.64 0 4 0 C4 0.99 4 1.98 4 3 C3.01 3 2.02 3 1 3 C0.67 4.32 0.34 5.64 0 7 C-0.99 7 -1.98 7 -3 7 C-3 5.68 -3 4.36 -3 3 C-2.01 3 -1.02 3 0 3 C0 2.01 0 1.02 0 0 Z " fill="#E9E9E9" transform="translate(7,207)"/>
<path d="M0 0 C1.32 0 2.64 0 4 0 C4 0.99 4 1.98 4 3 C3.01 3 2.02 3 1 3 C0.67 4.32 0.34 5.64 0 7 C-0.99 7 -1.98 7 -3 7 C-3 5.68 -3 4.36 -3 3 C-2.01 3 -1.02 3 0 3 C0 2.01 0 1.02 0 0 Z " fill="#E9E9E9" transform="translate(217,192)"/>
<path d="M0 0 C1.32 0 2.64 0 4 0 C4 0.99 4 1.98 4 3 C3.01 3 2.02 3 1 3 C0.67 4.32 0.34 5.64 0 7 C-0.99 7 -1.98 7 -3 7 C-3 5.68 -3 4.36 -3 3 C-2.01 3 -1.02 3 0 3 C0 2.01 0 1.02 0 0 Z " fill="#E9E9E9" transform="translate(157,177)"/>
<path d="M0 0 C1.32 0 2.64 0 4 0 C4 0.99 4 1.98 4 3 C3.01 3 2.02 3 1 3 C0.67 4.32 0.34 5.64 0 7 C-0.99 7 -1.98 7 -3 7 C-3 5.68 -3 4.36 -3 3 C-2.01 3 -1.02 3 0 3 C0 2.01 0 1.02 0 0 Z " fill="#E9E9E9" transform="translate(7,177)"/>
<path d="M0 0 C1.32 0 2.64 0 4 0 C4 0.99 4 1.98 4 3 C3.01 3 2.02 3 1 3 C0.67 4.32 0.34 5.64 0 7 C-0.99 7 -1.98 7 -3 7 C-3 5.68 -3 4.36 -3 3 C-2.01 3 -1.02 3 0 3 C0 2.01 0 1.02 0 0 Z " fill="#E9E9E9" transform="translate(142,162)"/>
<path d="M0 0 C1.32 0 2.64 0 4 0 C4 0.99 4 1.98 4 3 C3.01 3 2.02 3 1 3 C0.67 4.32 0.34 5.64 0 7 C-0.99 7 -1.98 7 -3 7 C-3 5.68 -3 4.36 -3 3 C-2.01 3 -1.02 3 0 3 C0 2.01 0 1.02 0 0 Z " fill="#E9E9E9" transform="translate(82,162)"/>
<path d="M0 0 C1.32 0 2.64 0 4 0 C4 0.99 4 1.98 4 3 C3.01 3 2.02 3 1 3 C0.67 4.32 0.34 5.64 0 7 C-0.99 7 -1.98 7 -3 7 C-3 5.68 -3 4.36 -3 3 C-2.01 3 -1.02 3 0 3 C0 2.01 0 1.02 0 0 Z " fill="#E9E9E9" transform="translate(187,147)"/>
<path d="M0 0 C1.32 0 2.64 0 4 0 C4 0.99 4 1.98 4 3 C3.01 3 2.02 3 1 3 C0.67 4.32 0.34 5.64 0 7 C-0.99 7 -1.98 7 -3 7 C-3 5.68 -3 4.36 -3 3 C-2.01 3 -1.02 3 0 3 C0 2.01 0 1.02 0 0 Z " fill="#E9E9E9" transform="translate(172,147)"/>
<path d="M0 0 C1.32 0 2.64 0 4 0 C4 0.99 4 1.98 4 3 C3.01 3 2.02 3 1 3 C0.67 4.32 0.34 5.64 0 7 C-0.99 7 -1.98 7 -3 7 C-3 5.68 -3 4.36 -3 3 C-2.01 3 -1.02 3 0 3 C0 2.01 0 1.02 0 0 Z " fill="#E9E9E9" transform="translate(157,147)"/>
<path d="M0 0 C1.32 0 2.64 0 4 0 C4 0.99 4 1.98 4 3 C3.01 3 2.02 3 1 3 C0.67 4.32 0.34 5.64 0 7 C-0.99 7 -1.98 7 -3 7 C-3 5.68 -3 4.36 -3 3 C-2.01 3 -1.02 3 0 3 C0 2.01 0 1.02 0 0 Z " fill="#E9E9E9" transform="translate(52,147)"/>
<path d="M0 0 C0.99 0 1.98 0 3 0 C3 0.99 3 1.98 3 3 C4.32 3 5.64 3 7 3 C7 4.32 7 5.64 7 7 C5.35 6.67 3.7 6.34 2 6 C1.34 4.02 0.68 2.04 0 0 Z " fill="#E6E8EA" transform="translate(27,143)"/>
<path d="M0 0 C1.32 0 2.64 0 4 0 C4 0.99 4 1.98 4 3 C3.01 3 2.02 3 1 3 C0.67 4.32 0.34 5.64 0 7 C-0.99 7 -1.98 7 -3 7 C-3 5.68 -3 4.36 -3 3 C-2.01 3 -1.02 3 0 3 C0 2.01 0 1.02 0 0 Z " fill="#E9E9E9" transform="translate(37,132)"/>
<path d="M0 0 C0.33 0.99 0.66 1.98 1 3 C2.32 3 3.64 3 5 3 C5 4.32 5 5.64 5 7 C3.68 7 2.36 7 1 7 C0.67 8.32 0.34 9.64 0 11 C0 7.37 0 3.74 0 0 Z " fill="#DBE2E9" transform="translate(164,98)"/>
<path d="M0 0 C1.32 0 2.64 0 4 0 C4 0.99 4 1.98 4 3 C3.01 3 2.02 3 1 3 C0.67 4.32 0.34 5.64 0 7 C-0.99 7 -1.98 7 -3 7 C-3 5.68 -3 4.36 -3 3 C-2.01 3 -1.02 3 0 3 C0 2.01 0 1.02 0 0 Z " fill="#E9E9E9" transform="translate(187,87)"/>
<path d="M0 0 C1.32 0 2.64 0 4 0 C4 0.99 4 1.98 4 3 C3.01 3 2.02 3 1 3 C0.67 4.32 0.34 5.64 0 7 C-0.99 7 -1.98 7 -3 7 C-3 5.68 -3 4.36 -3 3 C-2.01 3 -1.02 3 0 3 C0 2.01 0 1.02 0 0 Z " fill="#E9E9E9" transform="translate(172,87)"/>
<path d="M0 0 C1.32 0 2.64 0 4 0 C4 0.99 4 1.98 4 3 C3.01 3 2.02 3 1 3 C0.67 4.32 0.34 5.64 0 7 C-0.99 7 -1.98 7 -3 7 C-3 5.68 -3 4.36 -3 3 C-2.01 3 -1.02 3 0 3 C0 2.01 0 1.02 0 0 Z " fill="#E9E9E9" transform="translate(52,87)"/>
<path d="M0 0 C1.32 0 2.64 0 4 0 C4 0.99 4 1.98 4 3 C3.01 3 2.02 3 1 3 C0.67 4.32 0.34 5.64 0 7 C-0.99 7 -1.98 7 -3 7 C-3 5.68 -3 4.36 -3 3 C-2.01 3 -1.02 3 0 3 C0 2.01 0 1.02 0 0 Z " fill="#E9E9E9" transform="translate(37,87)"/>
<path d="M0 0 C2.475 0.495 2.475 0.495 5 1 C5.66 2.98 6.32 4.96 7 7 C6.01 7 5.02 7 4 7 C4 6.01 4 5.02 4 4 C2.68 4 1.36 4 0 4 C0 2.68 0 1.36 0 0 Z " fill="#E7E8EA" transform="translate(191,75)"/>
<path d="M0 0 C0.66 0 1.32 0 2 0 C1.67 3.3 1.34 6.6 1 10 C0.67 9.34 0.34 8.68 0 8 C-0.99 8 -1.98 8 -3 8 C-3 6.68 -3 5.36 -3 4 C-2.01 4 -1.02 4 0 4 C0 2.68 0 1.36 0 0 Z " fill="#F9F9F9" transform="translate(67,67)"/>
<path d="M0 0 C1.32 0 2.64 0 4 0 C4 0.99 4 1.98 4 3 C3.01 3 2.02 3 1 3 C0.67 4.32 0.34 5.64 0 7 C-0.99 7 -1.98 7 -3 7 C-3 5.68 -3 4.36 -3 3 C-2.01 3 -1.02 3 0 3 C0 2.01 0 1.02 0 0 Z " fill="#E9E9E9" transform="translate(172,57)"/>
<path d="M0 0 C1.32 0 2.64 0 4 0 C4 0.99 4 1.98 4 3 C3.01 3 2.02 3 1 3 C0.67 4.32 0.34 5.64 0 7 C-0.99 7 -1.98 7 -3 7 C-3 5.68 -3 4.36 -3 3 C-2.01 3 -1.02 3 0 3 C0 2.01 0 1.02 0 0 Z " fill="#E9E9E9" transform="translate(52,57)"/>
<path d="M0 0 C1.32 0 2.64 0 4 0 C4 0.99 4 1.98 4 3 C3.01 3 2.02 3 1 3 C0.67 4.32 0.34 5.64 0 7 C-0.99 7 -1.98 7 -3 7 C-3 5.68 -3 4.36 -3 3 C-2.01 3 -1.02 3 0 3 C0 2.01 0 1.02 0 0 Z " fill="#E9E9E9" transform="translate(217,42)"/>
<path d="M0 0 C1.32 0 2.64 0 4 0 C4 0.99 4 1.98 4 3 C3.01 3 2.02 3 1 3 C0.67 4.32 0.34 5.64 0 7 C-0.99 7 -1.98 7 -3 7 C-3 5.68 -3 4.36 -3 3 C-2.01 3 -1.02 3 0 3 C0 2.01 0 1.02 0 0 Z " fill="#E9E9E9" transform="translate(97,42)"/>
<path d="M0 0 C1.32 0 2.64 0 4 0 C4 0.99 4 1.98 4 3 C3.01 3 2.02 3 1 3 C0.67 4.32 0.34 5.64 0 7 C-0.99 7 -1.98 7 -3 7 C-3 5.68 -3 4.36 -3 3 C-2.01 3 -1.02 3 0 3 C0 2.01 0 1.02 0 0 Z " fill="#E9E9E9" transform="translate(7,42)"/>
<path d="M0 0 C1.32 0 2.64 0 4 0 C4 0.99 4 1.98 4 3 C3.01 3 2.02 3 1 3 C0.67 4.32 0.34 5.64 0 7 C-0.99 7 -1.98 7 -3 7 C-3 5.68 -3 4.36 -3 3 C-2.01 3 -1.02 3 0 3 C0 2.01 0 1.02 0 0 Z " fill="#E9E9E9" transform="translate(217,12)"/>
<path d="M0 0 C1.32 0 2.64 0 4 0 C4 0.99 4 1.98 4 3 C3.01 3 2.02 3 1 3 C0.67 4.32 0.34 5.64 0 7 C-0.99 7 -1.98 7 -3 7 C-3 5.68 -3 4.36 -3 3 C-2.01 3 -1.02 3 0 3 C0 2.01 0 1.02 0 0 Z " fill="#E9E9E9" transform="translate(202,12)"/>
<path d="M0 0 C1.32 0 2.64 0 4 0 C4 0.99 4 1.98 4 3 C3.01 3 2.02 3 1 3 C0.67 4.32 0.34 5.64 0 7 C-0.99 7 -1.98 7 -3 7 C-3 5.68 -3 4.36 -3 3 C-2.01 3 -1.02 3 0 3 C0 2.01 0 1.02 0 0 Z " fill="#E9E9E9" transform="translate(187,12)"/>
<path d="M0 0 C1.32 0 2.64 0 4 0 C4 0.99 4 1.98 4 3 C3.01 3 2.02 3 1 3 C0.67 4.32 0.34 5.64 0 7 C-0.99 7 -1.98 7 -3 7 C-3 5.68 -3 4.36 -3 3 C-2.01 3 -1.02 3 0 3 C0 2.01 0 1.02 0 0 Z " fill="#E9E9E9" transform="translate(37,12)"/>
<path d="M0 0 C1.32 0 2.64 0 4 0 C4 0.99 4 1.98 4 3 C3.01 3 2.02 3 1 3 C0.67 4.32 0.34 5.64 0 7 C-0.99 7 -1.98 7 -3 7 C-3 5.68 -3 4.36 -3 3 C-2.01 3 -1.02 3 0 3 C0 2.01 0 1.02 0 0 Z " fill="#E9E9E9" transform="translate(22,12)"/>
<path d="M0 0 C1.32 0 2.64 0 4 0 C4 0.99 4 1.98 4 3 C3.01 3 2.02 3 1 3 C0.67 4.32 0.34 5.64 0 7 C-0.99 7 -1.98 7 -3 7 C-3 5.68 -3 4.36 -3 3 C-2.01 3 -1.02 3 0 3 C0 2.01 0 1.02 0 0 Z " fill="#E9E9E9" transform="translate(7,12)"/>
<path d="M0 0 C0.99 0 1.98 0 3 0 C3 0.99 3 1.98 3 3 C4.32 3 5.64 3 7 3 C6.67 4.32 6.34 5.64 6 7 C2.535 5.02 2.535 5.02 -1 3 C-0.67 2.01 -0.34 1.02 0 0 Z " fill="#F9FAFA" transform="translate(68,188)"/>
<path d="M0 0 C0.33 0 0.66 0 1 0 C1.125 6.625 1.125 6.625 0 10 C-0.99 10 -1.98 10 -3 10 C-4 7 -4 7 -3.22265625 5.17578125 C-2.1484375 3.45052083 -1.07421875 1.72526042 0 0 Z " fill="#EBEEF0" transform="translate(213,162)"/>
<path d="M0 0 C1.32 0 2.64 0 4 0 C4 1.32 4 2.64 4 4 C4.99 4 5.98 4 7 4 C7 4.99 7 5.98 7 7 C6.01 7.33 5.02 7.66 4 8 C2.68 5.36 1.36 2.72 0 0 Z " fill="#F9F9F9" transform="translate(30,150)"/>
<path d="M0 0 C0.99 0 1.98 0 3 0 C3 0.99 3 1.98 3 3 C4.32 3 5.64 3 7 3 C7 4.32 7 5.64 7 7 C5.35 6.67 3.7 6.34 2 6 C1.34 4.02 0.68 2.04 0 0 Z " fill="#E3E6E9" transform="translate(132,143)"/>
<path d="M0 0 C0.99 0.33 1.98 0.66 3 1 C2.01 3.31 1.02 5.62 0 8 C-1.32 7.67 -2.64 7.34 -4 7 C-4 5.68 -4 4.36 -4 3 C-2.68 3 -1.36 3 0 3 C0 2.01 0 1.02 0 0 Z " fill="#E0E5E8" transform="translate(64,83)"/>
<path d="M0 0 C1.32 0 2.64 0 4 0 C4 1.32 4 2.64 4 4 C2.68 4 1.36 4 0 4 C0 4.99 0 5.98 0 7 C-0.66 7 -1.32 7 -2 7 C-1.125 1.125 -1.125 1.125 0 0 Z " fill="#F6F8FA" transform="translate(30,75)"/>
<path d="M0 0 C2.72426311 2.35277269 3.8141763 4.62496331 5 8 C3.68 8 2.36 8 1 8 C1 6.68 1 5.36 1 4 C0.01 4 -0.98 4 -2 4 C-2 3.01 -2 2.02 -2 1 C-1.34 0.67 -0.68 0.34 0 0 Z " fill="#FAFAFA" transform="translate(190,67)"/>
<path d="M0 0 C0.99 0 1.98 0 3 0 C4 3 4 3 3.22265625 4.82421875 C2.1484375 6.54947917 1.07421875 8.27473958 0 10 C-0.33 10 -0.66 10 -1 10 C-1.125 3.375 -1.125 3.375 0 0 Z " fill="#EBEEF0" transform="translate(12,53)"/>
<path d="M0 0 C3.96 1.98 3.96 1.98 8 4 C7.67 4.99 7.34 5.98 7 7 C6.01 7 5.02 7 4 7 C4 6.01 4 5.02 4 4 C2.68 4 1.36 4 0 4 C0 2.68 0 1.36 0 0 Z " fill="#FAFAFA" transform="translate(150,30)"/>
<path d="M0 0 C-2.54621319 2.00059608 -4.98037615 3.79215046 -8 5 C-8.66 4.67 -9.32 4.34 -10 4 C-10 3.01 -10 2.02 -10 1 C-6.52674819 -0.1577506 -3.63932552 -0.06866652 0 0 Z " fill="#EBEEF0" transform="translate(63,11)"/>
<path d="M0 0 C0.99 0 1.98 0 3 0 C3 1.32 3 2.64 3 4 C-0.465 5.485 -0.465 5.485 -4 7 C-4 5.68 -4 4.36 -4 3 C-2.68 3 -1.36 3 0 3 C0 2.01 0 1.02 0 0 Z " fill="#EAEAEA" transform="translate(154,188)"/>
<path d="M0 0 C1.32 0 2.64 0 4 0 C4.99 2.31 5.98 4.62 7 7 C5.68 7 4.36 7 3 7 C3 5.68 3 4.36 3 3 C2.01 3 1.02 3 0 3 C0 2.01 0 1.02 0 0 Z " fill="#E8E9EA" transform="translate(8,162)"/>
<path d="M0 0 C1.32 0.33 2.64 0.66 4 1 C3.01 2.98 2.02 4.96 1 7 C-0.32 7 -1.64 7 -3 7 C-3 6.01 -3 5.02 -3 4 C-2.01 4 -1.02 4 0 4 C0 2.68 0 1.36 0 0 Z " fill="#E9EAEA" transform="translate(191,150)"/>
<path d="M0 0 C0.99 0.33 1.98 0.66 3 1 C2.01 3.31 1.02 5.62 0 8 C-1.32 7.67 -2.64 7.34 -4 7 C-4 6.01 -4 5.02 -4 4 C-3.01 3.67 -2.02 3.34 -1 3 C-0.67 2.01 -0.34 1.02 0 0 Z " fill="#E2E6EA" transform="translate(8,64)"/>
<path d="M0 0 C1.32 0 2.64 0 4 0 C4 1.32 4 2.64 4 4 C4.99 4 5.98 4 7 4 C7 4.99 7 5.98 7 7 C5.68 7 4.36 7 3 7 C2.01 4.69 1.02 2.38 0 0 Z " fill="#E8E9EA" transform="translate(210,56)"/>
<path d="M0 0 C1.32 0 2.64 0 4 0 C4 0.99 4 1.98 4 3 C4.99 3 5.98 3 7 3 C7 4.32 7 5.64 7 7 C6.01 7 5.02 7 4 7 C3.67 6.01 3.34 5.02 3 4 C2.01 3.67 1.02 3.34 0 3 C0 2.01 0 1.02 0 0 Z " fill="#FDFDFD" transform="translate(150,53)"/>
<path d="M0 0 C2.76276177 0.52268466 5.3260876 1.10869587 8 2 C8 3.32 8 4.64 8 6 C6.68 6 5.36 6 4 6 C4 4.68 4 3.36 4 2 C2.68 2 1.36 2 0 2 C0 1.34 0 0.68 0 0 Z " fill="#F9FAFA" transform="translate(75,219)"/>
<path d="M0 0 C0.66 0 1.32 0 2 0 C2 1.32 2 2.64 2 4 C3.32 4 4.64 4 6 4 C6 5.32 6 6.64 6 8 C4.68 8 3.36 8 2 8 C0.74335022 5.09399739 0 3.20395416 0 0 Z " fill="#F9FAFA" transform="translate(219,75)"/>
<path d="M0 0 C0.99 0 1.98 0 3 0 C3.33 1.32 3.66 2.64 4 4 C1.36 4.99 -1.28 5.98 -4 7 C-4 6.01 -4 5.02 -4 4 C-3.01 3.67 -2.02 3.34 -1 3 C-0.67 2.01 -0.34 1.02 0 0 Z " fill="#E5E8EA" transform="translate(68,4)"/>
<path d="M0 0 C3.96 1.98 3.96 1.98 8 4 C7.67 4.99 7.34 5.98 7 7 C6.01 7 5.02 7 4 7 C4 6.01 4 5.02 4 4 C2.68 4 1.36 4 0 4 C0 2.68 0 1.36 0 0 Z " fill="#E2E5E7" transform="translate(75,131)"/>
<path d="M0 0 C0.66 0.33 1.32 0.66 2 1 C1.67 1.99 1.34 2.98 1 4 C0.01 4 -0.98 4 -2 4 C-2.33 5.32 -2.66 6.64 -3 8 C-3.99 7.67 -4.98 7.34 -6 7 C-4.02 4.69 -2.04 2.38 0 0 Z " fill="#DDE3E9" transform="translate(51,45)"/>
<path d="M0 0 C2.97 0 5.94 0 9 0 C9 0.66 9 1.32 9 2 C8.34 2 7.68 2 7 2 C7 2.99 7 3.98 7 5 C6.01 5 5.02 5 4 5 C4 4.01 4 3.02 4 2 C2.68 2 1.36 2 0 2 C0 1.34 0 0.68 0 0 Z " fill="#DAE2E9" transform="translate(176,122)"/>
<path d="M0 0 C0.33 0 0.66 0 1 0 C0.67 3.3 0.34 6.6 0 10 C-0.66 9.67 -1.32 9.34 -2 9 C-2.625 5.9375 -2.625 5.9375 -3 3 C-2.01 3 -1.02 3 0 3 C0 2.01 0 1.02 0 0 Z " fill="#E9ECEF" transform="translate(157,57)"/>
<path d="M0 0 C0.66 0.99 1.32 1.98 2 3 C1.34 4.32 0.68 5.64 0 7 C-1.32 7 -2.64 7 -4 7 C-4 5.68 -4 4.36 -4 3 C-2.68 3 -1.36 3 0 3 C0 2.01 0 1.02 0 0 Z " fill="#E5E7E9" transform="translate(15,169)"/>
<path d="M0 0 C3.3 0 6.6 0 10 0 C9.67 1.32 9.34 2.64 9 4 C8.34 4 7.68 4 7 4 C7 3.34 7 2.68 7 2 C6.34 1.67 5.68 1.34 5 1 C5 1.66 5 2.32 5 3 C2 2 2 2 0 0 Z " fill="#95C2E5" transform="translate(83,150)"/>
<path d="M0 0 C1.32 0 2.64 0 4 0 C4 1.32 4 2.64 4 4 C2.35 4.66 0.7 5.32 -1 6 C-1.66 5.34 -2.32 4.68 -3 4 C-2.01 4 -1.02 4 0 4 C0 2.68 0 1.36 0 0 Z " fill="#E5E7E9" transform="translate(172,11)"/>
<path d="M0 0 C0 1.32 0 2.64 0 4 C-1.32 4 -2.64 4 -4 4 C-4 3.01 -4 2.02 -4 1 C-4.66 0.67 -5.32 0.34 -6 0 C-3 -1 -3 -1 0 0 Z " fill="#E1E7EB" transform="translate(146,221)"/>
<path d="M0 0 C0.99 0.66 1.98 1.32 3 2 C2.01 2 1.02 2 0 2 C-0.33 3.32 -0.66 4.64 -1 6 C-1.99 6 -2.98 6 -4 6 C-4 4.68 -4 3.36 -4 2 C-2.68 1.34 -1.36 0.68 0 0 Z " fill="#E4E6E9" transform="translate(53,208)"/>
<path d="M0 0 C0.33 0.66 0.66 1.32 1 2 C1.99 2 2.98 2 4 2 C4 3.32 4 4.64 4 6 C2.35 5.67 0.7 5.34 -1 5 C-0.67 3.35 -0.34 1.7 0 0 Z " fill="#E1E7EB" transform="translate(221,140)"/>
<path d="M0 0 C1.32 0 2.64 0 4 0 C4 1.32 4 2.64 4 4 C3.01 4 2.02 4 1 4 C1 4.66 1 5.32 1 6 C0.34 6 -0.32 6 -1 6 C-0.67 4.02 -0.34 2.04 0 0 Z " fill="#FBFBFB" transform="translate(26,131)"/>
<path d="M0 0 C1.32 0 2.64 0 4 0 C3.67 1.32 3.34 2.64 3 4 C2.01 4 1.02 4 0 4 C-0.33 4.99 -0.66 5.98 -1 7 C-2 4 -2 4 -1.0625 1.8125 C-0.5365625 0.9153125 -0.5365625 0.9153125 0 0 Z " fill="#E4E6E9" transform="translate(210,49)"/>
<path d="M0 0 C1.32 0 2.64 0 4 0 C4 0.99 4 1.98 4 3 C4.66 3.33 5.32 3.66 6 4 C3.69 4 1.38 4 -1 4 C-0.67 2.68 -0.34 1.36 0 0 Z " fill="#D2DEE8" transform="translate(120,199)"/>
<path d="M0 0 C0.66 0.33 1.32 0.66 2 1 C1.01 2.485 1.01 2.485 0 4 C0.99 4 1.98 4 3 4 C3 4.99 3 5.98 3 7 C2.01 7 1.02 7 0 7 C-1.6875 5 -1.6875 5 -3 3 C-2.01 2.01 -1.02 1.02 0 0 Z " fill="#E6E9EC" transform="translate(188,195)"/>
<path d="M0 0 C1.32 0 2.64 0 4 0 C4.33 1.32 4.66 2.64 5 4 C3.35 4.33 1.7 4.66 0 5 C0 3.35 0 1.7 0 0 Z " fill="#FBFAF9" transform="translate(135,195)"/>
<path d="M0 0 C0 0.66 0 1.32 0 2 C-1.32 2 -2.64 2 -4 2 C-4 2.99 -4 3.98 -4 5 C-4.99 5 -5.98 5 -7 5 C-7 4.34 -7 3.68 -7 3 C-7.99 2.67 -8.98 2.34 -10 2 C-8.7090864 1.66376204 -7.41723903 1.33110751 -6.125 1 C-5.40570313 0.814375 -4.68640625 0.62875 -3.9453125 0.4375 C-2 0 -2 0 0 0 Z " fill="#D3DFE8" transform="translate(142,137)"/>
<path d="M0 0 C2.31 0 4.62 0 7 0 C6.67 1.32 6.34 2.64 6 4 C4.68 4 3.36 4 2 4 C2 3.01 2 2.02 2 1 C1.34 0.67 0.68 0.34 0 0 Z " fill="#D2DEE8" transform="translate(99,22)"/>
<path d="M0 0 C2.475 0.495 2.475 0.495 5 1 C5 2.32 5 3.64 5 5 C3.68 5 2.36 5 1 5 C0.67 3.35 0.34 1.7 0 0 Z " fill="#FCFCFC" transform="translate(145,220)"/>
<path d="M0 0 C1.32 0 2.64 0 4 0 C4 0.99 4 1.98 4 3 C1.29120665 4.35439668 -1.00933268 4.06501451 -4 4 C-2.68 3.67 -1.36 3.34 0 3 C0 2.01 0 1.02 0 0 Z " fill="#DEE4E9" transform="translate(105,199)"/>
<path d="M0 0 C1.32 0 2.64 0 4 0 C4 1.32 4 2.64 4 4 C2.68 4.33 1.36 4.66 0 5 C0 3.35 0 1.7 0 0 Z " fill="#E2E6E9" transform="translate(86,195)"/>
<path d="M0 0 C0.33 0.66 0.66 1.32 1 2 C0.67 2.99 0.34 3.98 0 5 C-1.32 5 -2.64 5 -4 5 C-4 3.68 -4 2.36 -4 1 C-2.68 0.67 -1.36 0.34 0 0 Z " fill="#FBFBFB" transform="translate(34,194)"/>
<path d="M0 0 C2.5 1.375 2.5 1.375 5 3 C5 3.66 5 4.32 5 5 C5.66 5 6.32 5 7 5 C7 5.66 7 6.32 7 7 C6.01 7 5.02 7 4 7 C4 6.01 4 5.02 4 4 C2.68 4 1.36 4 0 4 C0 2.68 0 1.36 0 0 Z " fill="#DDE3E8" transform="translate(116,180)"/>
<path d="M0 0 C2.475 0.495 2.475 0.495 5 1 C5 2.32 5 3.64 5 5 C3.68 5 2.36 5 1 5 C0.67 3.35 0.34 1.7 0 0 Z " fill="#FCFCFC" transform="translate(220,145)"/>
<path d="M0 0 C0.33 0.99 0.66 1.98 1 3 C3.01508358 3.73323796 3.01508358 3.73323796 5 4 C5 4.99 5 5.98 5 7 C3.68 7 2.36 7 1 7 C0.67 4.69 0.34 2.38 0 0 Z " fill="#FCFCFC" transform="translate(164,109)"/>
<path d="M0 0 C1.65 0 3.3 0 5 0 C4.67 1.32 4.34 2.64 4 4 C2.68 4 1.36 4 0 4 C0 2.68 0 1.36 0 0 Z " fill="#E2E6E9" transform="translate(195,86)"/>
<path d="M0 0 C1.32 0 2.64 0 4 0 C4.33 1.65 4.66 3.3 5 5 C3.35 4.67 1.7 4.34 0 4 C0 2.68 0 1.36 0 0 Z " fill="#FCFCFC" transform="translate(0,75)"/>
<path d="M0 0 C0.99 0 1.98 0 3 0 C3 0.99 3 1.98 3 3 C4.65 3.33 6.3 3.66 8 4 C4.93109813 5.53445094 2.29905734 4.54984289 -1 4 C-0.67 2.68 -0.34 1.36 0 0 Z " fill="#D1DDE7" transform="translate(72,53)"/>
<path d="M0 0 C1.32 0 2.64 0 4 0 C4 1.32 4 2.64 4 4 C2.35 4.33 0.7 4.66 -1 5 C-0.67 3.35 -0.34 1.7 0 0 Z " fill="#FBFBFB" transform="translate(195,30)"/>
<path d="M0 0 C1.32 0 2.64 0 4 0 C4.33 1.65 4.66 3.3 5 5 C3.35 4.67 1.7 4.34 0 4 C0 2.68 0 1.36 0 0 Z " fill="#FCFCFC" transform="translate(75,0)"/>
<path d="M0 0 C1.32 0 2.64 0 4 0 C4 1.65 4 3.3 4 5 C2.68 4.67 1.36 4.34 0 4 C0 2.68 0 1.36 0 0 Z " fill="#FDFCFC" transform="translate(195,135)"/>
<path d="M0 0 C0.99 0 1.98 0 3 0 C3 1.32 3 2.64 3 4 C2.01 4 1.02 4 0 4 C-0.33 5.32 -0.66 6.64 -1 8 C-0.67 5.36 -0.34 2.72 0 0 Z " fill="#DDE3E9" transform="translate(23,116)"/>
<path d="M0 0 C0.33 0 0.66 0 1 0 C0.67 2.64 0.34 5.28 0 8 C-0.99 8 -1.98 8 -3 8 C-3 6.68 -3 5.36 -3 4 C-2.01 4 -1.02 4 0 4 C0 2.68 0 1.36 0 0 Z " fill="#DEE4E8" transform="translate(202,101)"/>
<path d="M0 0 C1.32 0.33 2.64 0.66 4 1 C4 2.32 4 3.64 4 5 C2.68 5 1.36 5 0 5 C0 3.35 0 1.7 0 0 Z " fill="#FDFCFB" transform="translate(26,85)"/>
<path d="M0 0 C0 0.66 0 1.32 0 2 C-0.66 2 -1.32 2 -2 2 C-2 2.99 -2 3.98 -2 5 C-3.32 5 -4.64 5 -6 5 C-3.74193548 0 -3.74193548 0 0 0 Z " fill="#FBFBFB" transform="translate(137,25)"/>
<path d="M0 0 C1.65 0 3.3 0 5 0 C5 1.32 5 2.64 5 4 C3.68 4 2.36 4 1 4 C0.67 2.68 0.34 1.36 0 0 Z " fill="#FDFCFC" transform="translate(85,26)"/>
</svg>
